<?xml version="1.0" standalone="no"?>
<!DOCTYPE svg PUBLIC "-//W3C//DTD SVG 1.1//EN" "http://www.w3.org/Graphics/SVG/1.1/DTD/svg11.dtd" >
<!--
2014-4-21: Created.
-->
<svg xmlns="http://www.w3.org/2000/svg">
<metadata>
Created by FontForge 20120731 at Mon Apr 21 15:41:59 2014
 By P.J. Onori
Created by P.J. Onori with FontForge 2.0 (http://fontforge.sf.net)
</metadata>
<defs>
<font id="iconic-lg" horiz-adv-x="12800" >
  <font-face 
    font-family="Iconic"
    font-weight="400"
    font-stretch="normal"
    units-per-em="12800"
    panose-1="2 0 5 3 0 0 0 0 0 0"
    ascent="12800"
    descent="0"
    bbox="-1.46293 -100 12810 12800"
    underline-thickness="50"
    underline-position="-100"
    unicode-range="U+E000-E21B"
  />
    <missing-glyph />
    <glyph glyph-name="0" unicode="&#xe000;" 
d="M4200 12800h8600v-12800h-8600v800h7800v11200h-7800v800zM6800 7650c0 87 66 106 131 69l2138 -1238c70 -50 70 -110 0 -150l-2138 -1250c-70 -50 -131 -11 -131 69v850h-6800v800h6800v850z" />
    <glyph glyph-name="1" unicode="&#xe001;" 
d="M4121 12800h8600v-12800h-8600v800h7800v11200h-7800v800zM2190 7709c59 42 131 23 131 -68v-841h6800v-800h-6800v-859c0 -80 -61 -112 -131 -72l-2138 1250c-70 50 -70 112 0 162z" />
    <glyph glyph-name="2" unicode="&#xe002;" 
d="M5894 11100c3260 0 5900 -2640 5900 -5900v-491h850c80 0 108 -58 68 -128l-1837 -2950c-40 -70 -123 -70 -163 0l-1837 2950c-40 70 -11 128 69 128h850v491c0 2710 -2190 4900 -4900 4900c-2625 0 -4763 -2055 -4894 -4647c133 3142 2719 5647 5894 5647z" />
    <glyph glyph-name="3" unicode="&#xe003;" 
d="M6837 11100c3175 0 5760 -2505 5893 -5647c-131 2592 -2268 4647 -4893 4647c-2710 0 -4900 -2190 -4900 -4900v-500h850c80 0 108 -61 68 -131l-1837 -2938c-40 -70 -123 -70 -163 0l-1837 2938c-40 70 -11 131 69 131h850v500c0 3260 2640 5900 5900 5900z" />
    <glyph glyph-name="4" unicode="&#xe004;" 
d="M0 10700h12800v-800h-12800v800zM1900 8100h9000v-800h-9000v800zM0 5500h12800v-800h-12800v800zM1900 2900h9000v-800h-9000v800z" />
    <glyph glyph-name="5" unicode="&#xe005;" 
d="M0 10700h12800v-800h-12800v800zM0 8100h9000v-800h-9000v800zM0 5500h12800v-800h-12800v800zM0 2900h9000v-800h-9000v800z" />
    <glyph glyph-name="6" unicode="&#xe006;" 
d="M0 10700h12800v-800h-12800v800zM3800 8100h9000v-800h-9000v800zM0 5500h12800v-800h-12800v800zM3800 2900h9000v-800h-9000v800z" />
    <glyph glyph-name="7" unicode="&#xe007;" 
d="M6400 12800c300 0 601 -19 891 -59l-3550 -6141l-2250 3900c1170 1410 2939 2300 4909 2300zM7500 12700c2200 -380 4021 -1880 4841 -3900h-7091zM1359 10341l3541 -6141h-4509c-250 690 -391 1430 -391 2200c0 1490 509 2851 1359 3941zM7900 8600h4509
c250 -690 391 -1430 391 -2200c0 -1490 -509 -2851 -1359 -3941zM9060 6200l2250 -3900c-1170 -1410 -2940 -2300 -4910 -2300c-300 0 -601 19 -881 59zM469 4000h7081l-2250 -3900c-2200 380 -4011 1880 -4831 3900z" />
    <glyph glyph-name="8" unicode="&#xe008;" horiz-adv-x="2800" 
d="M950 12700h1h800v-9600h850c80 0 120 -60 90 -140l-1281 -2919c-30 -80 -89 -80 -119 -10l-1281 2928c-30 80 10 141 90 141h850v9600z" />
    <glyph glyph-name="9" unicode="&#xe009;" horiz-adv-x="2800" 
d="M960 12700h800v-9766l869 497c80 40 111 8 81 -72l-950 -2425v-34h-12l-338 -859c-30 -80 -69 -80 -109 0l-335 859h-6v16l-950 2443c-30 80 11 112 81 72l869 -497v9766z" />
    <glyph glyph-name="10" unicode="&#xe00a;" horiz-adv-x="4000" 
d="M1550 12700h801v-8200h1450c80 0 120 -61 90 -141l-1881 -4318c-30 -80 -89 -80 -119 0l-1881 4318c-30 80 10 141 90 141h1450v8200z" />
    <glyph glyph-name="11" unicode="&#xe00b;" horiz-adv-x="4000" 
d="M1552 12700h800v-8769l1469 888c70 40 102 20 72 -60c-627 -1573 -1258 -3143 -1882 -4719c-40 -80 -79 -80 -109 0l-344 860h-6v16l-1541 3843c-30 70 2 100 72 60l1469 -888v8769z" />
    <glyph glyph-name="12" unicode="&#xe00c;" horiz-adv-x="4700" 
d="M1923 12700h800v-11000h1850c80 0 102 -41 32 -91l-2163 -1618c-70 -50 -167 -50 -237 0l-2163 1618c-70 50 -48 91 32 91h1850z" />
    <glyph glyph-name="13" unicode="&#xe00d;" horiz-adv-x="3900" 
d="M1541 12700h800v-9400h1450c80 0 109 -61 69 -131l-1838 -3138c-50 -70 -110 -70 -150 0l-1850 3138c-50 70 -11 131 69 131h1450v9400z" />
    <glyph glyph-name="14" unicode="&#xe00e;" horiz-adv-x="3500" 
d="M1323 12700h800v-11400h1250c80 0 102 -41 32 -91l-1563 -1218c-70 -50 -167 -50 -237 0l-1563 1218c-70 50 -48 91 32 91h1250z" />
    <glyph glyph-name="15" unicode="&#xe00f;" horiz-adv-x="2700" 
d="M932 12700h800v-10400h859c80 0 112 -61 72 -131l-1250 -2138c-50 -70 -111 -70 -141 0l-1250 2138c-50 70 -11 131 69 131h841v10400z" />
    <glyph glyph-name="16" unicode="&#xe010;" horiz-adv-x="9300" 
d="M8728 11009l565 -565l-6790 -6788l603 -603c57 -57 40 -127 -38 -162l-2968 -1160c-78 -35 -119 7 -91 78l1166 2975c35 78 105 95 162 38l603 -603z" />
    <glyph glyph-name="17" unicode="&#xe011;" horiz-adv-x="9300" 
d="M8723 11009l566 -565l-6906 -6906l965 -266c85 -28 84 -71 6 -106l-2387 -1044l-22 -22l-9 9l-847 -371c-78 -35 -106 -7 -78 78l372 846l-4 4l10 9l1056 2400c35 78 85 72 106 -6l266 -966z" />
    <glyph glyph-name="18" unicode="&#xe012;" horiz-adv-x="9300" 
d="M8725 11009c189 -189 377 -376 566 -565l-5800 -5800l1025 -1025c56 -57 43 -128 -35 -163l-4384 -1725c-78 -35 -119 7 -84 85l1725 4384c35 78 105 91 162 34l1025 -1025z" />
    <glyph glyph-name="19" unicode="&#xe013;" horiz-adv-x="9300" 
d="M8721 11009l566 -565l-6200 -6200l1665 -413c78 -21 88 -55 10 -90l-4669 -2010c-85 -28 -113 0 -78 78l365 853l-3 4l7 6l1634 3812c28 71 70 69 91 -9l412 -1666z" />
    <glyph glyph-name="20" unicode="&#xe014;" horiz-adv-x="9800" 
d="M9175 11209l565 -565l-7778 -7781l1306 -1307c57 -57 45 -98 -40 -84l-2675 381c-85 14 -155 84 -169 169l-381 2675c-14 85 27 98 84 41l1306 -1307z" />
    <glyph glyph-name="21" unicode="&#xe015;" horiz-adv-x="9300" 
d="M8734 11009l565 -565l-6647 -6647l1025 -1025c56 -57 35 -123 -43 -144l-3522 -919c-85 -14 -128 29 -107 107l913 3528c14 85 87 101 144 44l1025 -1026z" />
    <glyph glyph-name="22" unicode="&#xe016;" horiz-adv-x="9600" 
d="M9034 11109l566 -565l-8063 -8063l885 -884c56 -57 41 -99 -44 -85l-1966 241c-85 14 -155 84 -169 169l-240 1966c-14 85 27 100 84 43l885 -884z" />
    <glyph glyph-name="23" unicode="&#xe017;" horiz-adv-x="9300" 
d="M1371 3653l7357 7357l565 -566l-7356 -7356l610 -607c56 -56 34 -119 -44 -140l-2397 -632c-85 -14 -125 29 -97 100l628 2397c14 85 84 98 141 41z" />
    <glyph glyph-name="24" unicode="&#xe018;" horiz-adv-x="9400" 
d="M8769 11009l565 -565l-7896 -7897l3300 472l-779 -778l-3959 -566l566 3959l778 778l-472 -3300z" />
    <glyph glyph-name="25" unicode="&#xe019;" horiz-adv-x="9400" 
d="M8769 11009l565 -565l-7828 -7828l4291 615l-847 -850l-4950 -706l706 4950l850 847l-615 -4291z" />
    <glyph glyph-name="26" unicode="&#xe01a;" horiz-adv-x="10000" 
d="M9334 11309l566 -565l-8134 -8135l3465 -493l-706 -707l-3959 566l-566 3959l706 707l494 -3466z" />
    <glyph glyph-name="27" unicode="&#xe01b;" horiz-adv-x="9400" 
d="M8769 11009l565 -565l-7990 -7991h3675l-778 -778h-4241v4241l778 778v-3675z" />
    <glyph glyph-name="28" unicode="&#xe01c;" horiz-adv-x="9800" 
d="M9194 11209l565 -565l-8128 -8128l2753 -360l-706 -706l-3253 425l-425 3253l706 706l360 -2753z" />
    <glyph glyph-name="29" unicode="&#xe01d;" horiz-adv-x="9400" 
d="M8769 11009l565 -565l-8062 -8063h2828l-706 -706h-3394v3394l706 706v-2828z" />
    <glyph glyph-name="30" unicode="&#xe01e;" horiz-adv-x="4800" 
d="M2000 12800h800v-11166l2000 2666v-1100l-2400 -3200l-2400 3200v1100l2000 -2666v11166z" />
    <glyph glyph-name="31" unicode="&#xe01f;" horiz-adv-x="6000" 
d="M2600 12800h800v-11066l2600 3466v-1200l-3000 -4000l-3000 4000v1200l2600 -3466v11066z" />
    <glyph glyph-name="32" unicode="&#xe020;" horiz-adv-x="6400" 
d="M2800 12800h800v-11500l2800 2100v-1000l-3200 -2400l-3200 2400v1000l2800 -2100v11500z" />
    <glyph glyph-name="33" unicode="&#xe021;" horiz-adv-x="6000" 
d="M2600 12800h800v-11300l2600 2600v-1100l-3000 -3000l-3000 3000v1100l2600 -2600v11300z" />
    <glyph glyph-name="34" unicode="&#xe022;" horiz-adv-x="5200" 
d="M2200 12800h800v-11494l2200 1694v-1000l-2600 -2000l-2600 2000v1000l2200 -1694v11494z" />
    <glyph glyph-name="35" unicode="&#xe023;" horiz-adv-x="4800" 
d="M2000 12800h800v-11400l2000 2000v-1000l-2400 -2400l-2400 2400v1000l2000 -2000v11400z" />
    <glyph glyph-name="36" unicode="&#xe024;" horiz-adv-x="9300" 
d="M566 11010l6787 -6791l603 603c57 57 128 40 163 -38l1159 -2968c35 -78 -7 -119 -78 -91l-2975 1166c-78 35 -94 105 -37 162l603 603l-6791 6788z" />
    <glyph glyph-name="37" unicode="&#xe025;" horiz-adv-x="9300" 
d="M0 10444l566 565l6906 -6906l265 966c28 85 72 84 107 6l1044 -2388l21 -21l-9 -10l372 -847c35 -78 7 -106 -78 -78l-847 372l-3 -3l-10 9l-2400 1057c-78 35 -71 85 7 106l965 266z" />
    <glyph glyph-name="38" unicode="&#xe026;" horiz-adv-x="9300" 
d="M0 10444l566 566l5800 -5800l1025 1024c57 56 127 44 162 -34l1725 -4384c35 -78 -6 -120 -84 -85l-4385 1725c-78 35 -91 106 -34 163l1025 1025z" />
    <glyph glyph-name="39" unicode="&#xe027;" horiz-adv-x="9300" 
d="M566 11009l6200 -6200l412 1666c21 78 56 87 91 9l2009 -4668c28 -85 0 -113 -78 -78l-853 365l-3 -3l-6 6l-3813 1635c-71 28 -69 69 9 90l1666 413l-6200 6200z" />
    <glyph glyph-name="40" unicode="&#xe028;" horiz-adv-x="9800" 
d="M0 10644l566 565l7781 -7778l1306 1307c57 57 99 44 85 -41l-382 -2675c-14 -85 -84 -155 -169 -169l-2675 -381c-85 -14 -97 27 -40 84l1306 1306z" />
    <glyph glyph-name="41" unicode="&#xe029;" horiz-adv-x="9400" 
d="M566 11010l6646 -6647l1026 1025c57 56 122 34 143 -44l919 -3522c14 -85 -28 -127 -106 -106l-3528 912c-85 14 -101 87 -44 144l1025 1025l-6647 6647z" />
    <glyph glyph-name="42" unicode="&#xe02a;" horiz-adv-x="9600" 
d="M566 11109l8062 -8062l884 884c57 56 99 42 85 -43l-241 -1966c-14 -85 -83 -155 -168 -169l-1966 -241c-85 -14 -101 28 -44 85l884 884l-8062 8063z" />
    <glyph glyph-name="43" unicode="&#xe02b;" horiz-adv-x="9400" 
d="M566 11009l7356 -7356l606 610c56 56 120 34 141 -44l631 -2397c14 -85 -29 -125 -100 -97l-2397 628c-85 14 -98 84 -41 141l594 594l-7356 7356z" />
    <glyph glyph-name="44" unicode="&#xe02c;" horiz-adv-x="9400" 
d="M0 10444l566 566l7897 -7897l-472 3300l778 -779l565 -3959l-3959 566l-778 778l3300 -472z" />
    <glyph glyph-name="45" unicode="&#xe02d;" horiz-adv-x="9400" 
d="M566 11009l7828 -7828l-616 4291l850 -847l706 -4950l-4950 706l-846 850l4290 -615l-7828 7828z" />
    <glyph glyph-name="46" unicode="&#xe02e;" horiz-adv-x="10000" 
d="M566 11309l8134 -8134l494 3466l706 -707l-566 -3959l-3959 -566l-706 707l3465 493l-8134 8135z" />
    <glyph glyph-name="47" unicode="&#xe02f;" horiz-adv-x="9400" 
d="M566 11009l7990 -7990v3675l778 -778v-4241h-4240l-778 778h3675l-7991 7991z" />
    <glyph glyph-name="48" unicode="&#xe030;" horiz-adv-x="9800" 
d="M566 11209l8128 -8128l359 2753l706 -706l-425 -3253l-3253 -425l-706 706l2753 360l-8128 8128z" />
    <glyph glyph-name="49" unicode="&#xe031;" horiz-adv-x="9400" 
d="M0 10444l566 566l8062 -8063v2828l706 -706v-3394h-3393l-707 706h2828z" />
    <glyph glyph-name="50" unicode="&#xe032;" 
d="M3036 7750c51 -2 84 -40 84 -100v-850h9600v-800h-9600v-850c0 -80 -60 -121 -140 -91l-2919 1281c-80 30 -79 89 -9 119l2928 1282c20 8 39 10 56 9z" />
    <glyph glyph-name="51" unicode="&#xe033;" 
d="M3379 7650c65 25 119 1 72 -81l-497 -869h9765v-800h-9765l497 -869c40 -80 8 -111 -72 -81l-2425 950h-35v12l-859 338c-80 30 -80 69 0 109l859 335v6h16z" />
    <glyph glyph-name="52" unicode="&#xe034;" 
d="M4435 8350c51 -2 84 -40 84 -100v-1450h8200v-800h-8200v-1450c0 -80 -60 -121 -140 -91l-4319 1881c-80 30 -80 89 0 119l4319 1882c20 8 39 10 56 9z" />
    <glyph glyph-name="53" unicode="&#xe035;" 
d="M4779 8341c56 24 103 6 59 -72l-887 -1469h8769v-800h-8769l887 -1469c40 -70 21 -102 -59 -72c-1573 627 -3143 1257 -4719 1881c-80 40 -80 80 0 110l859 344v6h16z" />
    <glyph glyph-name="54" unicode="&#xe036;" 
d="M1656 8681c38 53 91 65 91 -31v-1850h11000v-800h-11000v-1850c0 -80 -41 -101 -91 -31l-1618 2162c-50 70 -50 168 0 238z" />
    <glyph glyph-name="55" unicode="&#xe037;" 
d="M3190 8219c59 42 131 22 131 -69v-1450h9400v-800h-9400v-1450c0 -80 -61 -109 -131 -69l-3138 1838c-70 50 -70 110 0 150z" />
    <glyph glyph-name="56" unicode="&#xe038;" 
d="M1256 8081c38 53 91 65 91 -31v-1250h11400v-800h-11400v-1250c0 -80 -41 -101 -91 -31l-1218 1562c-50 70 -50 168 0 238z" />
    <glyph glyph-name="57" unicode="&#xe039;" 
d="M2190 7709c59 42 131 23 131 -68v-841h10400v-800h-10400v-859c0 -80 -61 -112 -131 -72l-2138 1250c-70 50 -70 110 0 140z" />
    <glyph glyph-name="58" unicode="&#xe03a;" 
d="M3200 8800h1100l-2666 -2000h11166v-800h-11166l2666 -2000h-1100l-3200 2400z" />
    <glyph glyph-name="59" unicode="&#xe03b;" 
d="M4000 9400h1200l-3466 -2600h11066v-800h-11066l3466 -2600h-1200l-4000 3000z" />
    <glyph glyph-name="60" unicode="&#xe03c;" 
d="M2400 9600h1000l-2100 -2800h11500v-800h-11500l2100 -2800h-1000l-2400 3200z" />
    <glyph glyph-name="61" unicode="&#xe03d;" 
d="M3000 9400h1100l-2600 -2600h11300v-800h-11300l2600 -2600h-1100l-3000 3000z" />
    <glyph glyph-name="62" unicode="&#xe03e;" 
d="M2000 9000h1000l-1694 -2200h11494v-800h-11494l1694 -2200h-1000l-2000 2600z" />
    <glyph glyph-name="63" unicode="&#xe03f;" 
d="M2400 8800h1000l-2000 -2000h11400v-800h-11400l2000 -2000h-1000l-2400 2400z" />
    <glyph glyph-name="64" unicode="&#xe040;" 
d="M3036 10650c51 -2 84 -40 84 -100v-850h9600v-7600h-800v6800h-8800v-850c0 -80 -60 -121 -140 -91l-2928 1281c-70 30 -71 89 9 119l2919 1282c20 8 39 10 56 9z" />
    <glyph glyph-name="65" unicode="&#xe041;" 
d="M3379 10650c63 24 119 12 72 -81l-497 -869h9765v-7600h-800v6800h-8965l497 -869c40 -70 8 -111 -72 -81l-2444 950h-16v6l-859 335c-80 40 -80 79 0 109l859 338v12h35z" />
    <glyph glyph-name="66" unicode="&#xe042;" 
d="M2190 10631c62 35 131 14 131 -71v-860h10400v-7600h-800v6800h-9600v-840c0 -80 -61 -119 -131 -69l-2138 1250c-70 30 -70 90 0 140z" />
    <glyph glyph-name="67" unicode="&#xe043;" 
d="M2400 11200h1000l-2000 -2000h11400v-7600h-800v6800h-10600l2000 -2000h-1000l-2400 2400z" />
    <glyph glyph-name="68" unicode="&#xe044;" 
d="M9684 10650c17 1 36 -1 56 -9l2919 -1281c80 -30 80 -89 10 -119l-2928 -1282c-80 -30 -141 11 -141 91v850h-8800v-6800h-800v7600h9600v850c0 60 33 98 84 100z" />
    <glyph glyph-name="69" unicode="&#xe045;" 
d="M9269 10569c-47 93 9 105 72 81l2425 -950h34v-13l859 -337c80 -30 80 -70 0 -110l-859 -334v-6h-16l-2443 -950c-80 -30 -112 11 -72 81l497 869h-8966v-6800h-800v7600h9766z" />
    <glyph glyph-name="70" unicode="&#xe046;" 
d="M10459 10647c21 4 46 -1 72 -16l2138 -1250c70 -50 70 -110 0 -140l-2138 -1250c-70 -50 -131 -12 -131 68v841h-9600v-6800h-800v7600h10400v859c0 50 24 82 59 88z" />
    <glyph glyph-name="71" unicode="&#xe047;" 
d="M9400 11200h1000l2400 -2400l-2400 -2400h-1000l2000 2000h-10600v-6800h-800v7600h11400z" />
    <glyph glyph-name="72" unicode="&#xe048;" horiz-adv-x="8600" 
d="M0 12700h7600v-9600h850c80 0 121 -60 91 -140l-1281 -2919c-30 -80 -89 -80 -119 -10l-1282 2928c-30 80 11 141 91 141h850v8800h-6800v800z" />
    <glyph glyph-name="73" unicode="&#xe049;" horiz-adv-x="8600" 
d="M0 12700h7600v-9766l869 497c80 40 111 8 81 -72l-950 -2425v-34h-12l-338 -859c-30 -80 -69 -80 -109 0l-335 859h-6v16l-950 2443c-30 80 11 112 81 72l869 -497v8966h-6800v800z" />
    <glyph glyph-name="74" unicode="&#xe04a;" horiz-adv-x="8600" 
d="M0 12700h7600v-10400h859c80 0 112 -61 72 -131l-1250 -2138c-50 -70 -110 -70 -140 0l-1250 2138c-50 70 -11 131 69 131h840v9600h-6800v800z" />
    <glyph glyph-name="75" unicode="&#xe04b;" horiz-adv-x="9600" 
d="M0 12800h7600v-11400l2000 2000v-1000l-2400 -2400l-2400 2400v1000l2000 -2000v10600h-6800v800z" />
    <glyph glyph-name="76" unicode="&#xe04c;" horiz-adv-x="8600" 
d="M7141 12669c33 76 89 68 118 -9l1282 -2919c30 -80 -11 -141 -91 -141h-850v-9600h-7600v800h6800v8800h-850c-80 0 -121 61 -91 141z" />
    <glyph glyph-name="77" unicode="&#xe04d;" horiz-adv-x="8600" 
d="M7200 12719c19 0 35 -20 50 -60l338 -859h12v-34l950 -2426c30 -80 -1 -111 -81 -71l-869 497v-9766h-7600v800h6800v8966l-869 -497c-70 -40 -111 -9 -81 71l950 2444v16h6l335 859c20 40 40 60 59 60z" />
    <glyph glyph-name="78" unicode="&#xe04e;" horiz-adv-x="8600" 
d="M7203 12722c25 0 53 -18 78 -53l1250 -2138c40 -70 8 -131 -72 -131h-859v-10400h-7600v800h6800v9600h-841c-80 0 -118 61 -68 131l1250 2138c15 35 37 53 62 53z" />
    <glyph glyph-name="79" unicode="&#xe04f;" horiz-adv-x="9600" 
d="M7200 12800l2400 -2400v-1000l-2000 2000v-11400h-7600v800h6800v10600l-2000 -2000v1000z" />
    <glyph glyph-name="80" unicode="&#xe050;" horiz-adv-x="8600" 
d="M950 12700h1h7600v-800h-6800v-8800h850c80 0 120 -61 90 -141l-1281 -2928c-30 -70 -89 -70 -119 10l-1281 2918c-30 80 10 141 90 141h850v9600z" />
    <glyph glyph-name="81" unicode="&#xe051;" horiz-adv-x="8600" 
d="M961 12700h7600v-800h-6800v-8966l869 497c70 40 111 8 81 -72l-950 -2443v-16h-6l-334 -859c-40 -80 -80 -80 -110 0l-337 859h-13v34l-950 2425c-30 80 2 112 82 72l868 -497v9766z" />
    <glyph glyph-name="82" unicode="&#xe052;" horiz-adv-x="8600" 
d="M948 12700h7600v-800h-6800v-9600h841c80 0 119 -61 69 -131l-1250 -2138c-30 -70 -91 -70 -141 0l-1250 2138c-40 70 -8 131 72 131h860z" />
    <glyph glyph-name="83" unicode="&#xe053;" horiz-adv-x="9600" 
d="M2000 12800h7600v-800h-6800v-10600l2000 2000v-1000l-2400 -2400l-2400 2400v1000l2000 -2000v11400z" />
    <glyph glyph-name="84" unicode="&#xe054;" horiz-adv-x="8600" 
d="M1291 12659c29 77 86 86 119 10l1281 -2928c30 -80 -11 -141 -91 -141h-850v-8800h6800v-800h-7600v9600h-850c-80 0 -120 61 -90 141z" />
    <glyph glyph-name="85" unicode="&#xe055;" horiz-adv-x="8600" 
d="M1361 12719c19 0 40 -20 60 -60l334 -859h6v-16l950 -2444c30 -80 -11 -111 -81 -71l-869 497v-8966h6800v-800h-7600v9766l-868 -497c-80 -40 -112 -9 -82 71l950 2426v34h13l337 859c15 40 31 60 50 60z" />
    <glyph glyph-name="86" unicode="&#xe056;" horiz-adv-x="8600" 
d="M1345 12722c25 0 48 -18 63 -53l1250 -2138c50 -70 11 -131 -69 -131h-840v-9600h6800v-800h-7600v10400h-860c-80 0 -112 61 -72 131l1250 2138c25 35 53 53 78 53z" />
    <glyph glyph-name="87" unicode="&#xe057;" horiz-adv-x="9600" 
d="M2400 12800l2400 -2400v-1000l-2000 2000v-10600h6800v-800h-7600v11400l-2000 -2000v1000z" />
    <glyph glyph-name="88" unicode="&#xe058;" 
d="M4608 10750c65 13 112 -21 112 -100v-1250h8000v-7400h-1600v5800h-6400v-1250c0 -80 -60 -121 -140 -91l-4528 2081c-70 30 -71 89 9 119l4519 2082c10 4 19 7 28 9z" />
    <glyph glyph-name="89" unicode="&#xe059;" 
d="M4780 10741c67 25 112 4 90 -82l-459 -1259h8309v-7400h-1600v5800h-6709l459 -1260c30 -80 -10 -111 -90 -81l-3047 1341h-13v6l-1668 734c-70 30 -71 89 9 119l1659 732v9h19z" />
    <glyph glyph-name="90" unicode="&#xe05a;" 
d="M3390 10719c60 35 131 21 131 -69v-1250h9200v-7400h-1600v5800h-7600v-1250c0 -80 -61 -109 -131 -69l-3338 2038c-70 40 -70 122 0 162z" />
    <glyph glyph-name="91" unicode="&#xe05b;" 
d="M2624 11000h1700c30 0 30 -21 10 -41l-1760 -1759h10200v-7400h-1600v5800h-8606l1766 -1759c20 -20 10 -41 -10 -41h-1700c-30 0 -70 21 -90 41l-2519 2518c-20 20 -20 52 0 72l2519 2528c20 20 60 41 90 41z" />
    <glyph glyph-name="92" unicode="&#xe05c;" 
d="M8059 10750c22 6 51 2 81 -9l4519 -2081c80 -30 80 -89 10 -119l-4528 -2082c-80 -30 -141 11 -141 91v1250h-6400v-5800h-1600v7400h8000v1250c0 56 22 91 59 100z" />
    <glyph glyph-name="93" unicode="&#xe05d;" 
d="M7850 10659c-22 87 18 109 91 82l3040 -1341h19v-9l1659 -732c80 -30 80 -88 10 -118l-1669 -735v-6h-12l-3047 -1341c-80 -30 -121 2 -91 82l459 1259h-6709v-5800h-1600v7400h8309z" />
    <glyph glyph-name="94" unicode="&#xe05e;" 
d="M9200 10650c0 87 66 106 131 69l3338 -2038c70 -40 70 -122 0 -162l-3338 -2038c-70 -40 -131 -11 -131 69v1250h-7600v-5800h-1600v7400h9200v1250z" />
    <glyph glyph-name="95" unicode="&#xe05f;" 
d="M8450 11000h1700c30 0 71 -21 91 -41l2519 -2528c20 -20 20 -52 0 -72l-2519 -2518c-20 -20 -61 -41 -91 -41h-1700c-20 0 -29 21 -9 41l1765 1759h-8606v-5800h-1600v7400h10200l-1759 1759c-20 20 -21 41 9 41z" />
    <glyph glyph-name="96" unicode="&#xe060;" horiz-adv-x="8800" 
d="M0 12700h7400v-8000h1250c90 0 121 -60 91 -140l-2081 -4519c-30 -80 -89 -80 -119 -10l-2082 4528c-30 80 11 141 91 141h1250v6400h-5800v1600z" />
    <glyph glyph-name="97" unicode="&#xe061;" horiz-adv-x="8800" 
d="M0 12700h7400v-8309l1259 459c80 20 112 -11 82 -91l-1341 -3040v-19h-9l-732 -1659c-30 -80 -88 -80 -118 -10l-735 1669h-6v12l-1341 3047c-30 80 2 121 82 91l1259 -459v6709h-5800v1600z" />
    <glyph glyph-name="98" unicode="&#xe062;" horiz-adv-x="8800" 
d="M0 12700h7400v-9200h1250c80 0 109 -61 69 -131l-2038 -3338c-40 -70 -122 -70 -162 0l-2038 3338c-40 70 -11 131 69 131h1250v7600h-5800v1600z" />
    <glyph glyph-name="99" unicode="&#xe063;" horiz-adv-x="9200" 
d="M0 12700h7400v-10200l1759 1759c20 20 41 21 41 -9v-1700c0 -30 -21 -71 -41 -91l-2528 -2519c-20 -20 -52 -20 -72 0l-2518 2519c-20 20 -41 61 -41 91v1700c0 20 21 29 41 9l1759 -1765v8606h-5800v1600z" />
    <glyph glyph-name="100" unicode="&#xe064;" horiz-adv-x="8800" 
d="M6541 12669c33 76 89 68 118 -9l2082 -4519c30 -80 -1 -141 -91 -141h-1250v-8000h-7400v1600h5800v6400h-1250c-80 0 -121 61 -91 141z" />
    <glyph glyph-name="101" unicode="&#xe065;" horiz-adv-x="8800" 
d="M6541 12669c33 76 89 67 118 -10l732 -1659h9v-19l1341 -3040c30 -80 -2 -111 -82 -91l-1259 459v-8309h-7400v1600h5800v6709l-1259 -459c-80 -30 -112 11 -82 91l1341 3047v12h6z" />
    <glyph glyph-name="102" unicode="&#xe066;" horiz-adv-x="8800" 
d="M6600 12722c30 0 61 -18 81 -53l2038 -3338c40 -70 11 -131 -69 -131h-1250v-9200h-7400v1600h5800v7600h-1250c-80 0 -109 61 -69 131l2038 3338c20 35 51 53 81 53z" />
    <glyph glyph-name="103" unicode="&#xe067;" horiz-adv-x="9200" 
d="M6594 12775c12 0 27 -6 37 -16l2528 -2519c20 -20 41 -60 41 -90v-1700c0 -30 -21 -30 -41 -10l-1759 1760v-10200h-7400v1600h5800v8606l-1759 -1765c-20 -20 -41 -11 -41 9v1700c0 30 21 71 41 91l2518 2518c10 10 23 16 35 16z" />
    <glyph glyph-name="104" unicode="&#xe068;" horiz-adv-x="8800" 
d="M1352 12700h7400v-1600h-5800v-6400h1250c80 0 121 -61 91 -141l-2082 -4528c-30 -70 -89 -70 -119 10l-2081 4518c-30 80 1 141 91 141h1250v8000z" />
    <glyph glyph-name="105" unicode="&#xe069;" horiz-adv-x="8800" 
d="M1352 12700h7400v-1600h-5800v-6709l1259 459c80 30 112 -11 82 -91l-1341 -3047v-12h-6l-735 -1669c-30 -70 -89 -70 -119 10l-731 1659h-9v19l-1341 3040c-30 80 1 111 81 91l1260 -459v8309z" />
    <glyph glyph-name="106" unicode="&#xe06a;" horiz-adv-x="8800" 
d="M1337 12700h7400v-1600h-5800v-7600h1250c80 0 108 -61 68 -131l-2037 -3338c-40 -70 -123 -70 -163 0l-2037 3338c-40 70 -11 131 69 131h1250v9200z" />
    <glyph glyph-name="107" unicode="&#xe06b;" horiz-adv-x="9200" 
d="M1800 12700h7400v-1600h-5800v-8606l1759 1765c20 20 41 11 41 -9v-1700c0 -30 -21 -71 -41 -91l-2518 -2518c-20 -20 -52 -20 -72 0l-2528 2518c-20 20 -41 61 -41 91v1700c0 30 21 29 41 9l1759 -1759v10200z" />
    <glyph glyph-name="108" unicode="&#xe06c;" horiz-adv-x="8800" 
d="M2092 12659c29 77 86 86 119 10l2081 -4528c30 -80 -10 -141 -90 -141h-1250v-6400h5800v-1600h-7400v8000h-1250c-90 0 -121 61 -91 141z" />
    <glyph glyph-name="109" unicode="&#xe06d;" horiz-adv-x="8800" 
d="M2093 12659c29 77 85 86 118 10l735 -1669h6v-12l1341 -3047c30 -80 -2 -121 -82 -91l-1259 459v-6709h5800v-1600h-7400v8309l-1259 -459c-80 -20 -112 11 -82 91l1341 3040v19h9z" />
    <glyph glyph-name="110" unicode="&#xe06e;" horiz-adv-x="8800" 
d="M2137 12722c30 0 61 -18 81 -53l2038 -3338c40 -70 11 -131 -69 -131h-1250v-7600h5800v-1600h-7400v9200h-1250c-80 0 -109 61 -69 131l2037 3338c20 35 52 53 82 53z" />
    <glyph glyph-name="111" unicode="&#xe06f;" horiz-adv-x="9200" 
d="M2606 12775c12 0 25 -5 35 -15l2518 -2519c20 -20 41 -61 41 -91v-1700c0 -20 -21 -29 -41 -9l-1759 1765v-8606h5800v-1600h-7400v10200l-1759 -1759c-20 -20 -41 -21 -41 9v1700c0 30 21 71 41 91l2528 2518c10 10 25 16 37 16z" />
    <glyph glyph-name="112" unicode="&#xe070;" 
d="M11120 4900v5800h1600v-7400h-8000v-1250c0 -90 -60 -121 -140 -91l-4519 2081c-80 30 -79 89 -9 119l4528 2082c80 30 140 -11 140 -91v-1250h6400z" />
    <glyph glyph-name="113" unicode="&#xe071;" 
d="M11120 10700h1600v-7400h-8309l459 -1259c20 -80 -10 -112 -90 -82l-3041 1341h-19v9l-1659 732c-80 30 -79 88 -9 118l1668 735v6h13l3047 1341c80 30 120 -2 90 -82l-459 -1259h6709v5800z" />
    <glyph glyph-name="114" unicode="&#xe072;" 
d="M11121 10700h1600v-7400h-9200v-1250c0 -80 -61 -109 -131 -69l-3338 2038c-70 40 -70 122 0 162l3338 2038c70 40 131 11 131 -69v-1250h7600v5800z" />
    <glyph glyph-name="115" unicode="&#xe073;" 
d="M11174 11000h1600v-7400h-10200l1760 -1759c20 -20 20 -41 -10 -41h-1700c-30 0 -70 21 -90 41l-2519 2528c-20 20 -20 52 0 72l2519 2518c20 20 60 41 90 41h1700c20 0 30 -21 10 -41l-1766 -1759h8606v5800z" />
    <glyph glyph-name="116" unicode="&#xe074;" 
d="M0 10700h1600v-5800h6400v1250c0 80 61 121 141 91l4528 -2081c70 -30 70 -89 -10 -119l-4518 -2082c-80 -30 -141 1 -141 91v1250h-8000v7400z" />
    <glyph glyph-name="117" unicode="&#xe075;" 
d="M0 10700h1600v-5800h6709l-459 1259c-30 80 11 112 91 82l3047 -1341h12v-6l1669 -735c70 -30 70 -88 -10 -118l-1659 -732v-9h-19l-3040 -1341c-80 -30 -111 2 -91 82l459 1259h-8309v7400z" />
    <glyph glyph-name="118" unicode="&#xe076;" 
d="M0 10700h1600v-5800h7600v1250c0 80 61 109 131 69l3338 -2038c70 -40 70 -122 0 -162l-3338 -2038c-70 -40 -131 -11 -131 69v1250h-9200v7400z" />
    <glyph glyph-name="119" unicode="&#xe077;" 
d="M0 11000h1600v-5800h8606l-1765 1759c-20 20 -11 41 9 41h1700c30 0 71 -21 91 -41l2519 -2518c20 -20 20 -52 0 -72l-2519 -2528c-20 -20 -61 -41 -91 -41h-1700c-30 0 -29 21 -9 41l1759 1759h-10200v7400z" />
    <glyph glyph-name="120" unicode="&#xe078;" 
d="M11920 3800v6800h800v-7600h-9600v-850c0 -80 -60 -121 -140 -91l-2919 1281c-80 30 -79 89 -9 119l2928 1282c80 30 140 -11 140 -91v-850h8800z" />
    <glyph glyph-name="121" unicode="&#xe079;" 
d="M11919 10600h800v-7600h-9765l497 -869c40 -80 8 -111 -72 -81l-2425 950h-35v12l-859 338c-80 30 -80 69 0 109l859 335v6h16l2444 950c80 30 112 -11 72 -81l-497 -869h8965v6800z" />
    <glyph glyph-name="122" unicode="&#xe07a;" 
d="M11921 10600h800v-7600h-10400v-859c0 -80 -61 -112 -131 -72l-2138 1250c-70 50 -70 110 0 140l2138 1250c70 50 131 12 131 -68v-841h9600v6800z" />
    <glyph glyph-name="123" unicode="&#xe07b;" 
d="M12000 11200h800v-7600h-11400l2000 -2000h-1000l-2400 2400l2400 2400h1000l-2000 -2000h10600v6800z" />
    <glyph glyph-name="124" unicode="&#xe07c;" 
d="M0 10600h800v-6800h8800v850c0 80 61 121 141 91l2928 -1281c70 -30 70 -89 -10 -119l-2918 -1282c-80 -30 -141 11 -141 91v850h-9600v7600z" />
    <glyph glyph-name="125" unicode="&#xe07d;" 
d="M0 10600h800v-6800h8966l-497 869c-40 70 -8 111 72 81l2443 -950h16v-6l859 -335c80 -40 80 -79 0 -109l-859 -338v-12h-34l-2425 -950c-80 -30 -112 1 -72 81l497 869h-9766v7600z" />
    <glyph glyph-name="126" unicode="&#xe07e;" 
d="M0 10600h800v-6800h9600v840c0 80 61 119 131 69l2138 -1250c70 -30 70 -90 0 -140l-2138 -1250c-70 -40 -131 -8 -131 72v859h-10400v7600z" />
    <glyph glyph-name="127" unicode="&#xe07f;" 
d="M0 11200h800v-6800h10600l-2000 2000h1000l2400 -2400l-2400 -2400h-1000l2000 2000h-11400v7600z" />
    <glyph glyph-name="128" unicode="&#xe080;" 
d="M9684 7750c17 1 36 -1 56 -9l2919 -1281c80 -30 80 -89 10 -119l-2928 -1282c-80 -30 -141 11 -141 91v850h-9600v800h9600v850c0 60 33 98 84 100z" />
    <glyph glyph-name="129" unicode="&#xe081;" 
d="M9269 7569c-47 93 9 105 72 81l2425 -950h34v-13l859 -337c80 -30 80 -70 0 -110l-859 -334v-6h-16l-2443 -950c-80 -30 -112 11 -72 81l497 869h-9766v800h9766z" />
    <glyph glyph-name="130" unicode="&#xe082;" 
d="M8284 8350c17 1 37 -1 57 -9l4318 -1881c80 -30 80 -89 0 -119l-4318 -1882c-80 -30 -141 11 -141 91v1450h-8200v800h8200v1450c0 60 33 98 84 100z" />
    <glyph glyph-name="131" unicode="&#xe083;" 
d="M7881 8169c-51 89 2 93 60 71c1573 -627 3143 -1257 4719 -1881c80 -40 80 -79 0 -109l-860 -344v-6h-16l-3843 -1541c-70 -30 -100 2 -60 72l888 1469h-8769v800h8769z" />
    <glyph glyph-name="132" unicode="&#xe084;" 
d="M11000 8650c0 89 45 95 91 31l1618 -2162c50 -70 50 -168 0 -238l-1618 -2162c-50 -70 -91 -49 -91 31v1850h-11000v800h11000v1850z" />
    <glyph glyph-name="133" unicode="&#xe085;" 
d="M9400 8250c0 87 66 106 131 69l3138 -1838c70 -50 70 -110 0 -150l-3138 -1850c-70 -50 -131 -11 -131 69v1450h-9400v800h9400v1450z" />
    <glyph glyph-name="134" unicode="&#xe086;" 
d="M11400 8050c0 89 45 95 91 31l1218 -1562c50 -70 50 -168 0 -238l-1218 -1562c-50 -70 -91 -49 -91 31v1250h-11400v800h11400v1250z" />
    <glyph glyph-name="135" unicode="&#xe087;" 
d="M10459 7647c21 4 46 -1 72 -16l2138 -1250c70 -50 70 -110 0 -140l-2138 -1250c-70 -50 -131 -12 -131 68v841h-10400v800h10400v859c0 50 24 82 59 88z" />
    <glyph glyph-name="136" unicode="&#xe088;" 
d="M8500 8800h1100l3200 -2400l-3200 -2400h-1100l2666 2000h-11166v800h11166z" />
    <glyph glyph-name="137" unicode="&#xe089;" 
d="M7600 9400h1200l4000 -3000l-4000 -3000h-1200l3466 2600h-11066v800h11066z" />
    <glyph glyph-name="138" unicode="&#xe08a;" 
d="M9400 9600h1000l2400 -3200l-2400 -3200h-1000l2100 2800h-11500v800h11500z" />
    <glyph glyph-name="139" unicode="&#xe08b;" 
d="M8700 9400h1100l3000 -3000l-3000 -3000h-1100l2600 2600h-11300v800h11300z" />
    <glyph glyph-name="140" unicode="&#xe08c;" 
d="M9800 9000h1000l2000 -2600l-2000 -2600h-1000l1694 2200h-11494v800h11494z" />
    <glyph glyph-name="141" unicode="&#xe08d;" 
d="M9400 8800h1000l2400 -2400l-2400 -2400h-1000l2000 2000h-11400v800h11400z" />
    <glyph glyph-name="142" unicode="&#xe08e;" horiz-adv-x="4400" 
d="M1350 12700h1h1600v-8000h1250c90 0 120 -60 90 -140l-2081 -4519c-30 -80 -89 -80 -119 -10l-2081 4528c-30 80 10 141 90 141h1250v8000z" />
    <glyph glyph-name="143" unicode="&#xe08f;" horiz-adv-x="4400" 
d="M1352 12700h1600v-8309l1259 459c80 20 112 -11 82 -91l-1341 -3040v-19h-9l-732 -1659c-30 -80 -88 -80 -118 -10l-735 1669h-6v12l-1341 3047c-30 80 2 121 82 91l1259 -459v8309z" />
    <glyph glyph-name="144" unicode="&#xe090;" horiz-adv-x="5600" 
d="M1950 12700h1h1600v-6800h1850c90 0 130 -60 90 -140l-2681 -5719c-30 -80 -88 -80 -128 -10l-2672 5728c-30 80 10 141 90 141h1850v6800z" />
    <glyph glyph-name="145" unicode="&#xe091;" horiz-adv-x="5500" 
d="M1947 12700h1600v-6972l1859 531c80 20 111 -20 81 -100l-1940 -4428v-31h-13l-728 -1659c-30 -80 -89 -80 -109 -10l-731 1669h-19v47l-1932 4412c-40 80 2 120 82 100l1850 -531v6972z" />
    <glyph glyph-name="146" unicode="&#xe092;" horiz-adv-x="6800" 
d="M2600 12800h1600v-10000h2600l-3400 -2800l-3400 2800h2600v10000z" />
    <glyph glyph-name="147" unicode="&#xe093;" horiz-adv-x="5500" 
d="M1941 12700h1600v-8200h1850c80 0 109 -61 69 -131l-2638 -4338c-50 -70 -112 -70 -162 0l-2638 4338c-50 70 -11 131 69 131h1850v8200z" />
    <glyph glyph-name="148" unicode="&#xe094;" horiz-adv-x="4700" 
d="M1523 12700h1600v-10800h1450c80 0 92 -50 32 -100l-2163 -1800c-70 -60 -167 -60 -237 0l-2163 1800c-70 60 -48 100 32 100h1450z" />
    <glyph glyph-name="149" unicode="&#xe095;" horiz-adv-x="4300" 
d="M1337 12700h1600v-9200h1250c80 0 108 -61 68 -131l-2037 -3338c-40 -70 -123 -70 -163 0l-2037 3338c-40 70 -11 131 69 131h1250v9200z" />
    <glyph glyph-name="150" unicode="&#xe096;" horiz-adv-x="9600" 
d="M8443 11091l1132 -1132l-5657 -5656l885 -884c64 -64 43 -128 -35 -163l-4668 -1725c-78 -35 -119 7 -91 78l1731 4675c35 78 106 92 163 35l884 -885z" />
    <glyph glyph-name="151" unicode="&#xe097;" horiz-adv-x="9600" 
d="M8443 11091l1132 -1132l-5875 -5875l1215 -565c71 -42 72 -87 -6 -122l-3100 -1203l-13 -13l-6 7l-1690 -657c-78 -35 -119 7 -91 78l659 1700l-3 3l10 10l1206 3103c35 78 87 84 122 6l565 -1215z" />
    <glyph glyph-name="152" unicode="&#xe098;" horiz-adv-x="9600" 
d="M8449 11091l1131 -1132l-4809 -4809l1309 -1306c64 -64 51 -135 -34 -163l-5941 -2150c-78 -35 -121 7 -100 85l2166 5940c35 78 105 92 162 35l1307 -1310z" />
    <glyph glyph-name="153" unicode="&#xe099;" horiz-adv-x="9600" 
d="M8441 11091l1131 -1132l-4931 -4931l1694 -937c71 -42 62 -94 -16 -129l-4503 -1759l-22 -22l-9 10l-1688 -660c-78 -35 -119 8 -84 72l665 1694l-15 15l31 32l1759 4487c28 85 83 87 125 16l935 -1685z" />
    <glyph glyph-name="154" unicode="&#xe09a;" horiz-adv-x="10100" 
d="M8909 11391l1132 -1132l-7072 -7072l1840 -1837l-4384 425l-425 4384l1838 -1840z" />
    <glyph glyph-name="155" unicode="&#xe09b;" horiz-adv-x="9600" 
d="M8453 11191l1131 -1132l-5797 -5797l1306 -1309c57 -56 38 -120 -40 -141l-4938 -1203c-85 -14 -126 28 -112 113l1203 4937c14 85 83 98 140 41l1310 -1306z" />
    <glyph glyph-name="156" unicode="&#xe09c;" horiz-adv-x="9900" 
d="M8754 11291l1131 -1132l-7634 -7634l1025 -1028c57 -56 28 -98 -50 -91l-2800 253c-92 7 -165 80 -172 172l-253 2800c-7 92 33 107 90 50l1028 -1025z" />
    <glyph glyph-name="157" unicode="&#xe09d;" horiz-adv-x="9600" 
d="M8455 11191l1131 -1131l-6503 -6504l881 -884c57 -57 37 -123 -41 -144l-3806 -919c-78 -21 -133 35 -112 113l918 3806c21 78 87 98 144 41l885 -881z" />
    <glyph glyph-name="158" unicode="&#xe09e;" horiz-adv-x="9700" 
d="M8484 11191l1132 -1132l-6897 -6897l2937 391l-1415 -1412l-4241 -566l566 4241l1412 1415l-390 -2937z" />
    <glyph glyph-name="159" unicode="&#xe09f;" horiz-adv-x="9700" 
d="M8484 11191l1132 -1132l-6872 -6872l4328 650l-1416 -1415l-5656 -847l847 5656l1415 1416l-650 -4328z" />
    <glyph glyph-name="160" unicode="&#xe0a0;" horiz-adv-x="10500" 
d="M9334 11591l1132 -1132l-7422 -7421l3462 -782l-1131 -1131l-4384 991l-991 4384l1131 1131l782 -3462z" />
    <glyph glyph-name="161" unicode="&#xe0a1;" horiz-adv-x="9700" 
d="M8484 11191l1132 -1132l-7213 -7212h3678l-1272 -1272h-4809v4809l1272 1272v-3678z" />
    <glyph glyph-name="162" unicode="&#xe0a2;" horiz-adv-x="10200" 
d="M9050 11491l1131 -1132l-7415 -7415l2325 -503l-1132 -1132l-3253 707l-706 3253l1131 1131l503 -2325z" />
    <glyph glyph-name="163" unicode="&#xe0a3;" horiz-adv-x="9700" 
d="M8484 11191l1132 -1132l-7207 -7206h2491c28 0 43 -13 22 -34l-1203 -1203c-21 -21 -63 -35 -91 -35h-3578c-28 0 -50 22 -50 50v3563c0 28 13 73 34 94l1204 1200c14 14 34 9 34 -19v-2491z" />
    <glyph glyph-name="164" unicode="&#xe0a4;" horiz-adv-x="5200" 
d="M1800 12800h1600v-9753l1800 2353v-2000l-2600 -3400l-2600 3400v2000l1800 -2353v9753z" />
    <glyph glyph-name="165" unicode="&#xe0a5;" horiz-adv-x="6800" 
d="M2600 12800h1600v-9719l2600 3519v-2000l-3400 -4600l-3400 4600v2000l2600 -3519v9719z" />
    <glyph glyph-name="166" unicode="&#xe0a6;" horiz-adv-x="7600" 
d="M3000 12700h1600v-10494l3000 1894v-1600l-3800 -2400l-3800 2400v1600l3000 -1894v10494z" />
    <glyph glyph-name="167" unicode="&#xe0a7;" horiz-adv-x="6800" 
d="M2600 12800h1600v-10200l2600 2600v-1800l-3400 -3400l-3400 3400v1800l2600 -2600v10200z" />
    <glyph glyph-name="168" unicode="&#xe0a8;" horiz-adv-x="5600" 
d="M2000 12700h1600v-10484l2000 1284v-1600l-2800 -1800l-2800 1800v1600l2000 -1284v10484z" />
    <glyph glyph-name="169" unicode="&#xe0a9;" horiz-adv-x="5200" 
d="M1800 12700h1600v-10191l1759 1760c20 20 41 20 41 -10v-1700c0 -30 -21 -70 -41 -90l-2528 -2528c-20 -20 -52 -20 -72 0l-2518 2518c-20 20 -41 61 -41 91v1700c0 20 21 29 41 9l1759 -1759v10200z" />
    <glyph glyph-name="170" unicode="&#xe0aa;" horiz-adv-x="9600" 
d="M0 9959l1131 1131l5657 -5656l884 885c64 64 127 43 162 -35l1725 -4669c35 -78 -7 -118 -78 -90l-4675 1731c-78 35 -91 106 -34 163l884 884z" />
    <glyph glyph-name="171" unicode="&#xe0ab;" horiz-adv-x="9600" 
d="M1131 11090l5875 -5874l566 1215c42 71 87 72 122 -6l1203 -3100l12 -13l-6 -6l656 -1691c35 -78 -7 -118 -78 -90l-1700 659l-3 -3l-9 9l-3103 1207c-78 35 -85 87 -7 122l1216 565l-5875 5875z" />
    <glyph glyph-name="172" unicode="&#xe0ac;" horiz-adv-x="9600" 
d="M0 9959l1131 1131l4810 -4809l1306 1309c64 64 134 51 162 -34l2150 -5940c35 -78 -6 -121 -84 -100l-5941 2165c-78 35 -91 106 -34 163l1309 1306z" />
    <glyph glyph-name="173" unicode="&#xe0ad;" horiz-adv-x="9600" 
d="M0 9959l1131 1131l4931 -4931l938 1694c42 71 93 62 128 -16l1760 -4503l21 -22l-9 -9l659 -1687c35 -78 -7 -120 -71 -85l-1694 666l-16 -16l-31 31l-4488 1760c-85 28 -86 83 -15 125l1684 934z" />
    <glyph glyph-name="174" unicode="&#xe0ae;" horiz-adv-x="10100" 
d="M1131 11391l7072 -7072l1838 1840l-425 -4384l-4385 -425l1841 1837l-7072 7072z" />
    <glyph glyph-name="175" unicode="&#xe0af;" horiz-adv-x="9600" 
d="M0 10059l1131 1131l5797 -5796l1310 1306c56 57 119 37 140 -41l1203 -4937c14 -85 -27 -127 -112 -113l-4938 1203c-85 14 -97 84 -40 141l1306 1309z" />
    <glyph glyph-name="176" unicode="&#xe0b0;" horiz-adv-x="9900" 
d="M1131 11291l7635 -7635l1028 1025c56 57 97 28 90 -50l-253 -2800c-7 -92 -80 -165 -172 -172l-2800 -253c-92 -7 -107 34 -50 91l1025 1028l-7634 7634z" />
    <glyph glyph-name="177" unicode="&#xe0b1;" horiz-adv-x="9600" 
d="M0 10059l1131 1131l6503 -6503l885 882c57 57 122 37 143 -41l919 -3806c21 -78 -34 -134 -112 -113l-3807 919c-78 21 -97 87 -40 144l881 884z" />
    <glyph glyph-name="178" unicode="&#xe0b2;" horiz-adv-x="9700" 
d="M0 10059l1131 1131l6897 -6896l-390 2937l1412 -1415l566 -4241l-4241 565l-1416 1413l2938 -391z" />
    <glyph glyph-name="179" unicode="&#xe0b3;" horiz-adv-x="9700" 
d="M1131 11191l6872 -6872l-650 4328l1416 -1416l847 -5656l-5657 847l-1415 1415l4328 -650l-6872 6872z" />
    <glyph glyph-name="180" unicode="&#xe0b4;" horiz-adv-x="10500" 
d="M0 10459l1131 1131l7422 -7421l781 3462l1132 -1131l-991 -4385l-4384 -990l-1132 1131l3463 781z" />
    <glyph glyph-name="181" unicode="&#xe0b5;" horiz-adv-x="9700" 
d="M1131 11191l7213 -7213v3678l1272 -1272v-4809h-4810l-1272 1272h3678l-7212 7212z" />
    <glyph glyph-name="182" unicode="&#xe0b6;" horiz-adv-x="10200" 
d="M1131 11491l7416 -7416l503 2325l1131 -1131l-706 -3253l-3253 -707l-1131 1132l2325 503l-7416 7415z" />
    <glyph glyph-name="183" unicode="&#xe0b7;" horiz-adv-x="9700" 
d="M0 10059l1131 1131l7207 -7206v2491c0 28 13 43 34 22l1203 -1203c21 -21 34 -63 34 -91v-3578c0 -28 -22 -50 -50 -50h-3562c-28 0 -73 13 -94 34l-1200 1203c-14 14 -9 35 19 35h2490z" />
    <glyph glyph-name="184" unicode="&#xe0b8;" 
d="M4636 8550c51 -2 84 -40 84 -100v-1250h8000v-1600h-8000v-1250c0 -90 -60 -121 -140 -91l-4519 2081c-80 30 -79 89 -9 119l4528 2082c20 8 39 10 56 9z" />
    <glyph glyph-name="185" unicode="&#xe0b9;" 
d="M4780 8541c68 26 123 5 90 -82l-459 -1259h8309v-1600h-8309l459 -1260c20 -80 -10 -111 -90 -81l-3041 1341h-19v9l-1659 731c-80 30 -79 89 -9 119l1668 735v6h13z" />
    <glyph glyph-name="186" unicode="&#xe0ba;" 
d="M5780 9141c76 28 140 -8 140 -91v-1850h6800v-1600h-6800v-1850c0 -90 -60 -131 -140 -91l-5719 2682c-80 30 -79 88 -9 128z" />
    <glyph glyph-name="187" unicode="&#xe0bb;" 
d="M6180 9131c67 33 123 12 100 -81l-532 -1850h6972v-1600h-6972l532 -1859c20 -80 -20 -112 -100 -82l-4428 1941h-32v12l-1659 728c-80 30 -79 90 -9 110l1668 731v19h47z" />
    <glyph glyph-name="188" unicode="&#xe0bc;" 
d="M2800 9800v-2600h10000v-1600h-10000v-2600l-2800 3400z" />
    <glyph glyph-name="189" unicode="&#xe0bd;" 
d="M4390 9019c59 42 131 22 131 -69v-1850h8200v-1600h-8200v-1850c0 -80 -61 -109 -131 -69l-4338 2638c-70 50 -70 112 0 162z" />
    <glyph glyph-name="190" unicode="&#xe0be;" 
d="M1845 8581c44 51 100 68 100 -31v-1450h10800v-1600h-10800v-1450c0 -80 -50 -91 -100 -31l-1800 2162c-60 70 -60 168 0 238z" />
    <glyph glyph-name="191" unicode="&#xe0bf;" 
d="M3390 8419c60 34 131 21 131 -69v-1250h9200v-1600h-9200v-1250c0 -80 -61 -109 -131 -69l-3338 2038c-70 40 -70 122 0 162z" />
    <glyph glyph-name="192" unicode="&#xe0c0;" 
d="M3400 9000h2000l-2353 -1800h9753v-1600h-9753l2353 -1800h-2000l-3400 2600z" />
    <glyph glyph-name="193" unicode="&#xe0c1;" 
d="M4600 9800h2000l-3519 -2600h9719v-1600h-9719l3519 -2600h-2000l-4600 3400z" />
    <glyph glyph-name="194" unicode="&#xe0c2;" horiz-adv-x="12600" 
d="M2400 10200h1600l-1894 -3000h10494v-1600h-10494l1894 -3000h-1600l-2400 3800z" />
    <glyph glyph-name="195" unicode="&#xe0c3;" 
d="M3400 9800h1800l-2600 -2600h10200v-1600h-10200l2600 -2600h-1800l-3400 3400z" />
    <glyph glyph-name="196" unicode="&#xe0c4;" horiz-adv-x="12600" 
d="M1800 9200h1600l-1284 -2000h10484v-1600h-10484l1284 -2000h-1600l-1800 2800z" />
    <glyph glyph-name="197" unicode="&#xe0c5;" 
d="M2624 9000h1700c20 0 30 -21 10 -41l-1760 -1759h10200v-1600h-10190l1759 -1759c20 -20 21 -41 -9 -41h-1700c-30 0 -71 21 -91 41l-2528 2528c-20 20 -20 52 0 72l2519 2518c20 20 60 41 90 41z" />
    <glyph glyph-name="198" unicode="&#xe0c6;" 
d="M8084 8550c17 0 36 -1 56 -9l4519 -2081c80 -30 80 -89 10 -119l-4528 -2082c-80 -30 -141 11 -141 91v1250h-8000v1600h8000v1250c0 68 33 100 84 100z" />
    <glyph glyph-name="199" unicode="&#xe0c7;" 
d="M7850 8359c-22 87 18 109 91 82l3040 -1341h19v-9l1659 -732c80 -30 80 -88 10 -118l-1669 -735v-6h-12l-3047 -1341c-80 -30 -121 2 -91 82l459 1259h-8309v1600h8309z" />
    <glyph glyph-name="200" unicode="&#xe0c8;" 
d="M6800 8950c0 96 66 128 140 91l5719 -2682c80 -30 80 -88 10 -128l-5728 -2672c-80 -30 -141 11 -141 91v1850h-6800v1600h6800v1850z" />
    <glyph glyph-name="201" unicode="&#xe0c9;" 
d="M6441 8959c-22 87 27 109 100 82l4428 -1941h31v-12l1659 -728c80 -30 80 -90 10 -110l-1669 -731v-19h-47l-4412 -1931c-80 -40 -120 1 -100 81l531 1850h-6972v1600h6972z" />
    <glyph glyph-name="202" unicode="&#xe0ca;" 
d="M10000 9800l2800 -3400l-2800 -3400v2600h-10000v1600h10000v2600z" />
    <glyph glyph-name="203" unicode="&#xe0cb;" 
d="M8200 9050c0 87 66 106 131 69l4338 -2638c70 -50 70 -112 0 -162l-4338 -2638c-70 -50 -131 -11 -131 69v1850h-8200v1600h8200v1850z" />
    <glyph glyph-name="204" unicode="&#xe0cc;" 
d="M10800 8650c0 88 55 85 100 31l1800 -2162c60 -70 60 -168 0 -238l-1800 -2162c-60 -70 -100 -49 -100 31v1450h-10800v1600h10800v1450z" />
    <glyph glyph-name="205" unicode="&#xe0cd;" 
d="M9200 8350c0 87 66 106 131 69l3338 -2038c70 -40 70 -122 0 -162l-3338 -2038c-70 -40 -131 -11 -131 69v1250h-9200v1600h9200v1250z" />
    <glyph glyph-name="206" unicode="&#xe0ce;" 
d="M7400 9000h2000l3400 -2600l-3400 -2600h-2000l2353 1800h-9753v1600h9753z" />
    <glyph glyph-name="207" unicode="&#xe0cf;" 
d="M6200 9800h2000l4600 -3400l-4600 -3400h-2000l3519 2600h-9719v1600h9719z" />
    <glyph glyph-name="208" unicode="&#xe0d0;" horiz-adv-x="12600" 
d="M8600 10200h1600l2400 -3800l-2400 -3800h-1600l1894 3000h-10494v1600h10494z" />
    <glyph glyph-name="209" unicode="&#xe0d1;" 
d="M7600 9800h1800l3400 -3400l-3400 -3400h-1800l2600 2600h-10200v1600h10200z" />
    <glyph glyph-name="210" unicode="&#xe0d2;" horiz-adv-x="12600" 
d="M9200 9200h1600l1800 -2800l-1800 -2800h-1600l1284 2000h-10484v1600h10484z" />
    <glyph glyph-name="211" unicode="&#xe0d3;" 
d="M8441 9000h1700c30 0 70 -21 90 -41l2528 -2528c20 -20 20 -52 0 -72l-2518 -2518c-20 -20 -61 -41 -91 -41h-1700c-20 0 -29 21 -9 41l1759 1759h-10200v1600h10191l-1760 1759c-20 20 -20 41 10 41z" />
    <glyph glyph-name="212" unicode="&#xe0d4;" horiz-adv-x="4400" 
d="M2092 12659c29 77 86 86 119 10l2081 -4528c30 -80 -10 -141 -90 -141h-1250v-8000h-1600v8000h-1250c-90 0 -121 61 -91 141z" />
    <glyph glyph-name="213" unicode="&#xe0d5;" horiz-adv-x="4400" 
d="M2093 12659c29 77 85 86 118 10l735 -1669h6v-12l1341 -3047c30 -80 -2 -121 -82 -91l-1259 459v-8309h-1600v8309l-1259 -459c-80 -20 -112 11 -82 91l1341 3040v19h9z" />
    <glyph glyph-name="214" unicode="&#xe0d6;" horiz-adv-x="5600" 
d="M2697 12659c30 81 87 82 128 10l2672 -5728c30 -80 -11 -141 -91 -141h-1850v-6800h-1600v6800h-1850c-90 0 -131 61 -91 141z" />
    <glyph glyph-name="215" unicode="&#xe0d7;" horiz-adv-x="5500" 
d="M2692 12659c27 72 87 91 110 10l731 -1669h19v-47l1931 -4412c40 -80 -1 -120 -81 -100l-1850 531v-6972h-1600v6972l-1859 -531c-80 -20 -112 20 -82 100l1941 4428v31h12z" />
    <glyph glyph-name="216" unicode="&#xe0d8;" horiz-adv-x="6800" 
d="M3400 12800l3400 -2800h-2600v-10000h-1600v10000h-2600z" />
    <glyph glyph-name="217" unicode="&#xe0d9;" horiz-adv-x="5500" 
d="M2737 12722c28 0 56 -18 81 -53l2638 -4338c50 -70 11 -131 -69 -131h-1850v-8200h-1600v8200h-1850c-80 0 -109 61 -69 131l2637 4338c25 35 54 53 82 53z" />
    <glyph glyph-name="218" unicode="&#xe0da;" horiz-adv-x="4700" 
d="M2319 12744c43 0 84 -14 119 -44l2163 -1800c70 -60 48 -100 -32 -100h-1450v-10800h-1600v10800h-1450c-80 0 -91 50 -31 100l2163 1800c35 30 76 44 118 44z" />
    <glyph glyph-name="219" unicode="&#xe0db;" horiz-adv-x="4300" 
d="M2137 12722c30 0 61 -18 81 -53l2038 -3338c40 -70 11 -131 -69 -131h-1250v-9200h-1600v9200h-1250c-80 0 -109 61 -69 131l2037 3338c20 35 52 53 82 53z" />
    <glyph glyph-name="220" unicode="&#xe0dc;" horiz-adv-x="9600" 
d="M13 11084c-37 82 13 117 78 91l4675 -1731c78 -35 91 -106 34 -163l-884 -884l5656 -5656l-1131 -1132l-5657 5657l-884 -885c-64 -64 -127 -43 -162 35z" />
    <glyph glyph-name="221" unicode="&#xe0dd;" horiz-adv-x="9600" 
d="M44 11184c13 1 29 -2 47 -9l1700 -659l3 3l9 -10l3103 -1206c78 -35 85 -87 7 -122l-1216 -565l5875 -5875l-1131 -1132l-5875 5875l-566 -1215c-42 -71 -87 -72 -122 6l-1203 3100l-12 13l6 6l-656 1690c-26 58 -9 96 31 100z" />
    <glyph glyph-name="222" unicode="&#xe0de;" horiz-adv-x="9600" 
d="M12 11084c-35 76 6 76 35 104c14 2 31 1 50 -4l5941 -2165c78 -35 91 -106 34 -163l-1309 -1306l4809 -4809l-1131 -1132l-4810 4810l-1306 -1310c-64 -64 -135 -50 -163 35z" />
    <glyph glyph-name="223" unicode="&#xe0df;" horiz-adv-x="9600" 
d="M13 11084c-35 76 5 74 28 97c12 0 28 -3 44 -12l1694 -666l15 16l31 -31l4488 -1760c85 -28 87 -83 16 -125l-1685 -934l4928 -4928l-1131 -1132l-4931 4932l-938 -1694c-42 -71 -93 -63 -128 15l-1759 4504l-22 21l9 10z" />
    <glyph glyph-name="224" unicode="&#xe0e0;" horiz-adv-x="10100" 
d="M4809 11350l-1840 -1838l7072 -7071l-1132 -1132l-7071 7072l-1838 -1840l425 4384z" />
    <glyph glyph-name="225" unicode="&#xe0e1;" horiz-adv-x="9600" 
d="M87 11094c9 0 17 -1 28 -3l4938 -1203c85 -14 97 -84 40 -141l-1306 -1309l5797 -5797l-1131 -1132l-5797 5797l-1310 -1306c-56 -57 -119 -37 -140 41l-1203 4937c-12 74 19 116 84 116z" />
    <glyph glyph-name="226" unicode="&#xe0e2;" horiz-adv-x="9900" 
d="M3226 11294c92 7 107 -34 50 -91l-1025 -1028l7634 -7634l-1131 -1132l-7635 7635l-1028 -1025c-56 -57 -97 -28 -90 50l253 2800c7 92 80 165 172 172z" />
    <glyph glyph-name="227" unicode="&#xe0e3;" horiz-adv-x="9600" 
d="M5 10978c-21 78 25 82 59 116c16 4 34 2 53 -3l3807 -919c78 -21 97 -87 40 -144l-881 -884l6503 -6503l-1131 -1132l-6503 6503l-885 -881c-57 -57 -123 -37 -144 41z" />
    <glyph glyph-name="228" unicode="&#xe0e4;" horiz-adv-x="9700" 
d="M0 11125l4241 -565l1415 -1413l-2937 391l6897 -6897l-1132 -1132l-6896 6897l390 -2937l-1412 1415z" />
    <glyph glyph-name="229" unicode="&#xe0e5;" horiz-adv-x="9700" 
d="M0 11125l5656 -847l1416 -1416l-4328 650l6872 -6871l-1132 -1132l-6872 6872l650 -4328l-1415 1416z" />
    <glyph glyph-name="230" unicode="&#xe0e6;" horiz-adv-x="10500" 
d="M5375 11575l1131 -1131l-3462 -782l7422 -7421l-1132 -1132l-7421 7422l-782 -3462l-1131 1131l991 4384z" />
    <glyph glyph-name="231" unicode="&#xe0e7;" horiz-adv-x="9700" 
d="M0 11125h4809l1272 -1272h-3678l7213 -7212l-1132 -1132l-7212 7213v-3678l-1272 1272v4809z" />
    <glyph glyph-name="232" unicode="&#xe0e8;" horiz-adv-x="10200" 
d="M3959 11491l1132 -1132l-2325 -503l7415 -7415l-1131 -1132l-7416 7416l-503 -2325l-1131 1131l706 3253z" />
    <glyph glyph-name="233" unicode="&#xe0e9;" horiz-adv-x="9700" 
d="M50 11125h3563c28 0 72 -13 93 -34l1200 -1203c14 -14 10 -35 -18 -35h-2491l7213 -7212l-1132 -1132l-7206 7207v-2491c0 -28 -13 -43 -34 -22l-1204 1203c-21 21 -34 63 -34 91v3578c0 28 22 50 50 50z" />
    <glyph glyph-name="234" unicode="&#xe0ea;" horiz-adv-x="5200" 
d="M2600 12800l2600 -3400v-2000l-1800 2353v-9753h-1600v9753l-1800 -2353v2000z" />
    <glyph glyph-name="235" unicode="&#xe0eb;" horiz-adv-x="6800" 
d="M3400 12800l3400 -4600v-2000l-2600 3519v-9719h-1600v9719l-2600 -3519v2000z" />
    <glyph glyph-name="236" unicode="&#xe0ec;" horiz-adv-x="7600" 
d="M3800 12700l3800 -2400v-1600l-3000 1894v-10494h-1600v10494l-3000 -1894v1600z" />
    <glyph glyph-name="237" unicode="&#xe0ed;" horiz-adv-x="6800" 
d="M3400 12800l3400 -3400v-1800l-2600 2600v-10200h-1600v10200l-2600 -2600v1800z" />
    <glyph glyph-name="238" unicode="&#xe0ee;" horiz-adv-x="5600" 
d="M2800 12700l2800 -1800v-1600l-2000 1284v-10484h-1600v10484l-2000 -1284v1600z" />
    <glyph glyph-name="239" unicode="&#xe0ef;" horiz-adv-x="5200" 
d="M2606 12775c12 0 25 -5 35 -15l2518 -2519c20 -20 41 -61 41 -91v-1700c0 -20 -21 -29 -41 -9l-1759 1759v-10200h-1600v10191l-1759 -1760c-20 -20 -41 -20 -41 10v1700c0 30 21 70 41 90l2528 2528c10 10 25 16 37 16z" />
    <glyph glyph-name="240" unicode="&#xe0f0;" horiz-adv-x="9600" 
d="M9475 11169c13 6 44 18 50 12c43 0 62 -38 41 -91l-1732 -4674c-35 -78 -105 -92 -162 -35l-884 885l-5657 -5657l-1131 1131l5656 5657l-884 884c-64 64 -44 128 34 163z" />
    <glyph glyph-name="241" unicode="&#xe0f1;" horiz-adv-x="9600" 
d="M9475 11169c63 28 124 3 91 -78l-660 -1700l4 -3l-10 -10l-1206 -3103c-35 -78 -87 -84 -122 -6l-566 1215l-5875 -5875l-1131 1132l5875 5875l-1216 565c-71 42 -71 87 7 122l3100 1203l12 13l6 -7z" />
    <glyph glyph-name="242" unicode="&#xe0f2;" horiz-adv-x="9600" 
d="M9475 11169c13 6 44 18 50 12c44 -1 66 -39 50 -97l-2165 -5940c-35 -78 -106 -92 -163 -35l-1306 1310l-4810 -4810l-1131 1131l4809 4810l-1309 1306c-64 64 -51 135 34 163z" />
    <glyph glyph-name="243" unicode="&#xe0f3;" horiz-adv-x="9600" 
d="M9525 11181c43 0 61 -36 35 -84l-666 -1694l16 -16l-32 -31l-1759 -4488c-28 -85 -83 -86 -125 -15l-935 1684l-4928 -4928l-1131 1131l4931 4932l-1693 937c-71 42 -63 93 15 128l4503 1760l22 22l10 -10l1687 660c19 9 36 12 50 12z" />
    <glyph glyph-name="244" unicode="&#xe0f4;" horiz-adv-x="10100" 
d="M5231 11350l4385 -425l425 -4384l-1838 1840l-7072 -7072l-1131 1132l7072 7071z" />
    <glyph glyph-name="245" unicode="&#xe0f5;" horiz-adv-x="9600" 
d="M9497 11094c65 0 96 -42 84 -116l-1203 -4938c-14 -85 -83 -97 -140 -40l-1310 1306l-5797 -5797l-1131 1132l5797 5797l-1306 1309c-57 56 -38 120 40 141l4938 1203c11 2 19 3 28 3z" />
    <glyph glyph-name="246" unicode="&#xe0f6;" horiz-adv-x="9900" 
d="M6659 11294l2800 -253c92 -7 165 -80 172 -172l253 -2800c7 -92 -33 -107 -90 -50l-1028 1025l-7635 -7635l-1131 1132l7634 7634l-1025 1028c-57 56 -28 98 50 91z" />
    <glyph glyph-name="247" unicode="&#xe0f7;" horiz-adv-x="9600" 
d="M9497 11094c63 2 103 -48 84 -116l-918 -3806c-21 -78 -87 -98 -144 -41l-885 881l-6503 -6503l-1131 1131l6503 6504l-881 884c-57 57 -38 123 40 144l3807 919c10 3 19 3 28 3z" />
    <glyph glyph-name="248" unicode="&#xe0f8;" horiz-adv-x="9700" 
d="M9616 11125l-566 -4241l-1412 -1415l390 2937l-6897 -6897l-1131 1132l6897 6897l-2938 -391l1416 1412z" />
    <glyph glyph-name="249" unicode="&#xe0f9;" horiz-adv-x="9700" 
d="M9616 11125l-847 -5656l-1416 -1416l650 4328l-6872 -6872l-1131 1132l6872 6871l-4328 -650l1415 1416z" />
    <glyph glyph-name="250" unicode="&#xe0fa;" horiz-adv-x="10500" 
d="M5091 11575c1461 -330 2923 -661 4384 -991l991 -4384l-1132 -1131l-781 3462l-7422 -7422l-1131 1131l7422 7422l-3463 782z" />
    <glyph glyph-name="251" unicode="&#xe0fb;" horiz-adv-x="9700" 
d="M4806 11125h4810v-4809l-1272 -1272v3678l-7213 -7213l-1131 1132l7212 7212h-3678z" />
    <glyph glyph-name="252" unicode="&#xe0fc;" horiz-adv-x="10200" 
d="M6222 11491l3253 -707l706 -3253l-1131 -1131l-503 2325l-7416 -7416l-1131 1132l7416 7415l-2325 503z" />
    <glyph glyph-name="253" unicode="&#xe0fd;" horiz-adv-x="9700" 
d="M5988 11119h3578c28 0 50 -22 50 -50v-3563c0 -28 -14 -73 -35 -94l-1203 -1200c-14 -14 -34 -9 -34 19v2491l-7213 -7213l-1131 1131l7206 7207h-2490c-28 0 -43 13 -22 34l1203 1203c21 21 63 35 91 35z" />
    <glyph glyph-name="254" unicode="&#xe0fe;" horiz-adv-x="2800" 
d="M1291 12659c29 77 86 86 119 10l1281 -2928c30 -80 -11 -141 -91 -141h-850v-9600h-800v9600h-850c-80 0 -120 61 -90 141z" />
    <glyph glyph-name="255" unicode="&#xe0ff;" horiz-adv-x="2800" 
d="M1361 12719c19 0 40 -20 60 -60l334 -859h6v-16l950 -2444c30 -80 -11 -111 -81 -71l-869 497v-9766h-800v9766l-868 -497c-80 -40 -112 -9 -82 71l950 2426v34h13l337 859c15 40 31 60 50 60z" />
    <glyph glyph-name="256" unicode="&#xe100;" horiz-adv-x="4000" 
d="M1951 12719h-1c22 0 45 -20 60 -60l1881 -4319c30 -80 -11 -140 -91 -140h-1450v-8200h-800v8200h-1450c-80 0 -120 60 -90 140l1881 4319c15 40 38 60 60 60z" />
    <glyph glyph-name="257" unicode="&#xe101;" horiz-adv-x="4000" 
d="M1952 12719c19 0 35 -20 50 -60l344 -859h6v-16l1541 -3844c30 -70 -2 -99 -72 -59l-1469 888v-8769h-800v8769l-1469 -888c-70 -40 -102 -21 -72 59c627 1573 1257 3143 1881 4719c20 40 41 60 60 60z" />
    <glyph glyph-name="258" unicode="&#xe102;" horiz-adv-x="4700" 
d="M2324 12747c43 0 83 -13 118 -38l2163 -1618c70 -50 49 -91 -31 -91h-1850v-11000h-800v11000h-1850c-80 0 -102 41 -32 91l2163 1618c35 25 77 38 119 38z" />
    <glyph glyph-name="259" unicode="&#xe103;" horiz-adv-x="3900" 
d="M1937 12722c26 0 49 -18 69 -53l1850 -3138c50 -70 11 -131 -69 -131h-1450v-9400h-800v9400h-1450c-80 0 -109 61 -69 131l1837 3138c25 35 56 53 82 53z" />
    <glyph glyph-name="260" unicode="&#xe104;" horiz-adv-x="3500" 
d="M1724 12747c43 0 83 -13 118 -38l1563 -1218c70 -50 49 -91 -31 -91h-1250v-11400h-800v11400h-1250c-80 0 -102 41 -32 91l1563 1218c35 25 77 38 119 38z" />
    <glyph glyph-name="261" unicode="&#xe105;" horiz-adv-x="2700" 
d="M1345 12722c25 0 48 -18 63 -53l1250 -2138c50 -70 11 -131 -69 -131h-840v-10400h-800v10400h-860c-80 0 -112 61 -72 131l1250 2138c25 35 53 53 78 53z" />
    <glyph glyph-name="262" unicode="&#xe106;" horiz-adv-x="9300" 
d="M44 10984c13 1 29 -2 47 -9l2975 -1166c78 -35 94 -105 37 -162l-603 -603l6791 -6788l-566 -565l-6787 6790l-604 -603c-57 -57 -127 -40 -162 38l-1159 2968c-26 58 -9 96 31 100z" />
    <glyph glyph-name="263" unicode="&#xe107;" horiz-adv-x="9300" 
d="M21 10978c16 5 40 2 72 -9l847 -372l3 3l10 -9l2400 -1057c78 -35 71 -85 -7 -106l-965 -266l6906 -6906l-566 -566l-6906 6907l-266 -966c-28 -85 -71 -84 -106 -6l-1044 2387l-22 22l10 10l-372 847c-22 49 -20 79 6 87z" />
    <glyph glyph-name="264" unicode="&#xe108;" horiz-adv-x="9300" 
d="M47 10981c14 0 31 -3 50 -12l4384 -1725c78 -35 92 -106 35 -163l-1025 -1025l5800 -5800l-566 -566l-5800 5800l-1025 -1024c-57 -56 -128 -44 -163 34l-1725 4384c-26 58 -8 96 35 97z" />
    <glyph glyph-name="265" unicode="&#xe109;" horiz-adv-x="9300" 
d="M10 10884c-31 91 10 109 78 78l854 -365l3 3l6 -6l3812 -1635c71 -28 69 -69 -9 -90l-1666 -413l6200 -6200l-565 -565l-6200 6200l-413 -1666c-21 -78 -55 -87 -90 -9z" />
    <glyph glyph-name="266" unicode="&#xe10a;" horiz-adv-x="9800" 
d="M3228 11228c85 14 98 -27 41 -84l-1307 -1306l7778 -7782l-565 -565l-7782 7778l-1306 -1307c-57 -57 -98 -44 -84 41l381 2675c14 85 84 155 169 169z" />
    <glyph glyph-name="267" unicode="&#xe10b;" horiz-adv-x="9400" 
d="M3 10878c-14 81 28 127 106 106l3528 -912c85 -14 101 -87 44 -144l-1025 -1025l6647 -6647l-566 -566l-6647 6647l-1025 -1025c-57 -56 -123 -34 -144 44z" />
    <glyph glyph-name="268" unicode="&#xe10c;" horiz-adv-x="9600" 
d="M2378 11188c85 14 101 -28 44 -85l-885 -884l8063 -8063l-566 -565l-8062 8062l-885 -884c-57 -56 -98 -42 -84 43l240 1966c14 85 84 155 169 169z" />
    <glyph glyph-name="269" unicode="&#xe10d;" horiz-adv-x="9400" 
d="M56 10984c14 1 29 -2 47 -9l2397 -628c85 -14 97 -84 40 -141l-594 -594l7357 -7356l-566 -566l-7356 7357l-606 -610c-56 -56 -120 -34 -141 44l-631 2397c-11 64 12 102 53 106z" />
    <glyph glyph-name="270" unicode="&#xe10e;" horiz-adv-x="9400" 
d="M0 11025l3959 -566l779 -778l-3300 472l7896 -7897l-565 -565l-7897 7897l472 -3300l-778 778z" />
    <glyph glyph-name="271" unicode="&#xe10f;" horiz-adv-x="9400" 
d="M0 11025l4950 -706l847 -850l-4291 615l7828 -7828l-565 -565l-7828 7828l615 -4291l-850 847z" />
    <glyph glyph-name="272" unicode="&#xe110;" horiz-adv-x="10000" 
d="M4525 11291l706 -707l-3465 -494l8134 -8134l-566 -566l-8134 8135l-494 -3466l-706 707l566 3959z" />
    <glyph glyph-name="273" unicode="&#xe111;" horiz-adv-x="9400" 
d="M0 11025h4241l778 -778h-3675l7990 -7991l-565 -565l-7991 7990v-3675l-778 778v4241z" />
    <glyph glyph-name="274" unicode="&#xe112;" horiz-adv-x="9800" 
d="M3678 11250l706 -706l-2753 -360l8128 -8128l-565 -565l-8128 8128l-360 -2753l-706 706l425 3253z" />
    <glyph glyph-name="275" unicode="&#xe113;" horiz-adv-x="9400" 
d="M0 11025h3394l706 -706h-2828l8062 -8063l-565 -566l-8063 8063v-2828l-706 706v3394z" />
    <glyph glyph-name="276" unicode="&#xe114;" horiz-adv-x="4800" 
d="M2400 12800l2400 -3200v-1100l-2000 2666v-11166h-800v11166l-2000 -2666v1100z" />
    <glyph glyph-name="277" unicode="&#xe115;" horiz-adv-x="6000" 
d="M3000 12800l3000 -4000v-1200l-2600 3466v-11066h-800v11066l-2600 -3466v1200z" />
    <glyph glyph-name="278" unicode="&#xe116;" horiz-adv-x="6400" 
d="M3200 12800l3200 -2400v-1000l-2800 2100v-11500h-800v11500l-2800 -2100v1000z" />
    <glyph glyph-name="279" unicode="&#xe117;" horiz-adv-x="6000" 
d="M3000 12800l3000 -3000v-1100l-2600 2600v-11300h-800v11300l-2600 -2600v1100z" />
    <glyph glyph-name="280" unicode="&#xe118;" horiz-adv-x="5200" 
d="M2600 12800l2600 -2000v-1000l-2200 1694v-11494h-800v11494l-2200 -1694v1000z" />
    <glyph glyph-name="281" unicode="&#xe119;" horiz-adv-x="4800" 
d="M2400 12800l2400 -2400v-1000l-2000 2000v-11400h-800v11400l-2000 -2000v1000z" />
    <glyph glyph-name="282" unicode="&#xe11a;" horiz-adv-x="9300" 
d="M9194 10969c63 28 122 3 90 -78l-1165 -2975c-35 -78 -106 -95 -163 -38l-603 603l-6787 -6790l-566 565l6791 6788l-603 603c-57 57 -41 127 37 162z" />
    <glyph glyph-name="283" unicode="&#xe11b;" horiz-adv-x="9300" 
d="M9250 10975c39 3 49 -27 28 -91l-372 -847l4 -3l-10 -9l-1056 -2400c-35 -78 -85 -72 -106 6l-266 966l-6906 -6907l-566 566l6906 6906l-965 266c-85 28 -85 71 -7 106l2388 1044l22 22l9 -9l847 371c19 9 37 12 50 13z" />
    <glyph glyph-name="284" unicode="&#xe11c;" horiz-adv-x="9300" 
d="M9194 10969c65 29 123 2 84 -85l-1725 -4384c-35 -78 -105 -91 -162 -34l-1025 1025l-5800 -5800l-566 565l5800 5800l-1025 1025c-56 57 -44 128 34 163z" />
    <glyph glyph-name="285" unicode="&#xe11d;" horiz-adv-x="9300" 
d="M9194 10969c67 22 118 11 78 -78l-366 -853l3 -4l-6 -6l-1634 -3812c-28 -71 -70 -69 -91 9l-412 1666l-6200 -6200l-566 565l6200 6200l-1666 413c-78 21 -87 55 -9 90z" />
    <glyph glyph-name="286" unicode="&#xe11e;" horiz-adv-x="9800" 
d="M6462 11228c12 3 29 4 50 0l2676 -381c85 -14 154 -84 168 -169l382 -2675c14 -85 -28 -98 -85 -41l-1306 1307l-7781 -7779l-566 566l7778 7781l-1306 1307c-42 42 -47 75 -10 84z" />
    <glyph glyph-name="287" unicode="&#xe11f;" horiz-adv-x="9300" 
d="M9216 10994c65 0 97 -42 78 -110l-913 -3528c-14 -85 -86 -101 -143 -44l-1026 1025l-6646 -6647l-566 566l6647 6647l-1025 1025c-56 57 -34 123 44 144l3522 919c11 2 19 3 28 3z" />
    <glyph glyph-name="288" unicode="&#xe120;" horiz-adv-x="9600" 
d="M7178 11103c-65 65 -30 97 44 85l1966 -241c85 -14 154 -84 168 -169l241 -1966c14 -85 -28 -100 -85 -43l-884 884l-8062 -8062l-566 565l8062 8063z" />
    <glyph glyph-name="289" unicode="&#xe121;" horiz-adv-x="9300" 
d="M9216 10994c65 0 93 -42 68 -104l-628 -2396c-14 -85 -83 -98 -140 -41l-594 594l-7356 -7357l-566 566l7356 7356l-609 607c-56 56 -34 119 44 140l2397 632c11 2 19 3 28 3z" />
    <glyph glyph-name="290" unicode="&#xe122;" horiz-adv-x="9400" 
d="M9334 11025l-565 -3959l-778 -778l471 3300l-7896 -7897l-566 565l7897 7897l-3300 -472l778 778z" />
    <glyph glyph-name="291" unicode="&#xe123;" horiz-adv-x="9400" 
d="M9334 11025l-706 -4950l-850 -847l616 4291l-7828 -7828l-566 565l7828 7828l-4290 -615l846 850z" />
    <glyph glyph-name="292" unicode="&#xe124;" horiz-adv-x="10000" 
d="M5375 11291l3959 -566l566 -3959l-706 -707l-494 3466l-8134 -8135l-566 566l8134 8134l-3465 494z" />
    <glyph glyph-name="293" unicode="&#xe125;" horiz-adv-x="9400" 
d="M5094 11025h4240v-4241l-778 -778v3675l-7990 -7990l-566 565l7991 7991h-3675z" />
    <glyph glyph-name="294" unicode="&#xe126;" horiz-adv-x="9800" 
d="M6081 11250l3253 -425l425 -3253l-706 -706l-359 2753l-8128 -8128l-566 565l8128 8128l-2753 360z" />
    <glyph glyph-name="295" unicode="&#xe127;" horiz-adv-x="9400" 
d="M5941 11025h3393v-3394l-706 -706v2828l-8062 -8062l-566 565l8062 8063h-2828z" />
    <glyph glyph-name="296" unicode="&#xe128;" horiz-adv-x="12000" 
d="M5600 11000h800v-9200h-800v9200zM7000 10000h800v-7200h-800v7200zM2800 9400h800v-6000h-800v6000zM4200 9200h800v-5600h-800v5600zM8400 8800h800v-4800h-800v4800zM1400 8600h800v-4400h-800v4400zM9800 7400h800v-2000h-800v2000zM0 7200h800v-1600h-800v1600z
M11200 7000h800v-1200h-800v1200z" />
    <glyph glyph-name="297" unicode="&#xe129;" 
d="M10922 10903c1162 -1162 1878 -2766 1878 -4534s-715 -3369 -1878 -4522l-563 569c1017 1007 1641 2401 1641 3953s-626 2951 -1644 3969zM1878 10894l562 -569c-1016 -1006 -1640 -2414 -1640 -3956s626 -2939 1644 -3957l-566 -565c-1162 1162 -1878 2764 -1878 4522
s714 3371 1878 4525zM3816 8962l568 -565c-518 -518 -834 -1223 -834 -2016s316 -1501 834 -2019l-568 -565c-662 662 -1066 1577 -1066 2584s404 1919 1066 2581zM8984 8953c662 -662 1066 -1577 1066 -2584s-404 -1920 -1066 -2582l-568 566c518 518 834 1223 834 2016
s-316 1500 -834 2018zM6400 7369c552 0 1000 -448 1000 -1000s-448 -1000 -1000 -1000s-1000 448 -1000 1000s448 1000 1000 1000z" />
    <glyph glyph-name="298" unicode="&#xe12a;" 
d="M6400 12800c3530 0 6400 -2870 6400 -6400s-2870 -6400 -6400 -6400s-6400 2870 -6400 6400s2870 6400 6400 6400zM6400 12000c-3098 0 -5600 -2502 -5600 -5600c0 -1404 515 -2687 1366 -3669l7903 7903c-982 851 -2265 1366 -3669 1366zM10634 10069l-7903 -7903
c982 -851 2265 -1366 3669 -1366c3098 0 5600 2502 5600 5600c0 1404 -515 2687 -1366 3669z" />
    <glyph glyph-name="299" unicode="&#xe12b;" 
d="M0 12000h400v-200h-200v-800h400v-200h-400v-800h200v-200h-200v-800h400v-200h-400v-800h200v-200h-200v-800h400v-200h-400v-800h200v-200h-200v-800h400v-200h-400v-800h200v-200h-200v-800h400v-200h-400v-800h200v-200h-200v-800h12600v-200h-12800v11200z
M6200 11200h1200v-10000h-1200v10000zM8600 9400h1200v-8200h-1200v8200zM11000 8400h1200v-7200h-1200v7200zM3800 7400h1200v-6200h-1200v6200zM1400 6200h1200v-5000h-1200v5000z" />
    <glyph glyph-name="300" unicode="&#xe12c;" 
d="M6344 11900h118c187 -29 340 -205 340 -395c0 -72 -35 -178 -77 -236c-998 -1404 -2002 -2802 -3006 -4200c-80 -110 -208 -169 -328 -169c-330 0 -519 393 -316 631l3000 4200c54 79 175 154 269 169zM7012 11328l2713 -3797c51 -61 92 -175 92 -255
c0 -155 -118 -323 -264 -376h-272c-73 26 -166 102 -206 169l-2553 3575zM150 7700h2800c-215 -264 -204 -677 100 -891c110 -70 230 -109 350 -109c190 0 371 90 491 250l528 750h3963l528 -750c120 -160 300 -250 490 -250c533 0 758 621 450 1000h2800
c80 0 150 -70 150 -150v-500c0 -80 -70 -150 -150 -150h-562l-1607 -5709c-40 -160 -211 -291 -381 -291h-7400c-170 0 -341 131 -381 291l-1607 5709h-562c-80 0 -150 70 -150 150v500c0 80 70 150 150 150zM3400 7500c-110 0 -200 -90 -200 -200s90 -200 200 -200
s200 90 200 200s-90 200 -200 200zM9400 7500c-110 0 -200 -90 -200 -200s90 -200 200 -200s200 90 200 200s-90 200 -200 200zM3200 5759c-68 248 -460 148 -390 -109l1000 -3600c20 -90 100 -150 190 -150c10 0 30 9 50 9c110 30 170 140 150 250zM9991 5650
c70 232 -309 372 -381 109l-1000 -3600c-33 -119 48 -259 190 -259c80 0 171 60 191 150zM5400 5719c-24 257 -424 221 -400 -38l400 -3600c10 -100 100 -181 200 -181h19c110 10 191 109 181 219zM7579 5900h-1c-93 -10 -169 -85 -178 -181l-400 -3600
c-10 -110 72 -209 182 -219h18c100 0 190 81 200 181l400 3600c11 118 -83 233 -221 219z" />
    <glyph glyph-name="301" unicode="&#xe12d;" 
d="M300 9600h11200c170 0 300 -130 300 -300v-1500h850c80 0 150 -70 150 -150v-2500c0 -80 -70 -150 -150 -150h-850v-1500c0 -170 -130 -300 -300 -300h-11200c-170 0 -300 130 -300 300v5800c0 170 130 300 300 300z" />
    <glyph glyph-name="302" unicode="&#xe12e;" 
d="M1000 -0c-550 0 -1000 437 -1000 1000c0 287 141 507 266 684l4134 5907v4809h-200h-9c-111 0 -201 89 -201 200c0 105 86 195 191 200h10h9h4400c110 0 200 -90 200 -200s-90 -200 -200 -200h-200v-4810l4134 -5906c123 -174 266 -390 266 -684
c0 -556 -438 -1000 -1000 -1000h-10800zM7195 11500c0 54 44 100 100 100h5h700v800h-3200v-4934c-672 -952 -1337 -1911 -2006 -2866h3806c-60 80 -100 190 -100 300c0 280 220 500 500 500s500 -220 500 -500c0 -110 -40 -220 -100 -300h2606l-559 800h-947h-5
c-55 0 -100 45 -100 100c0 54 44 100 100 100h5h806l-559 800h-847h-5c-55 0 -100 45 -100 100c0 54 44 100 100 100h5h710l-563 800h-747h-5c-55 0 -100 45 -100 100c0 54 44 100 100 100h5h700v800h-700h-5c-55 0 -100 45 -100 100c0 54 44 100 100 100h5h700v800h-700h-5
c-55 0 -100 45 -100 100c0 54 44 100 100 100h5h700v800h-700h-5c-55 0 -100 45 -100 100c0 54 44 100 100 100h5h700v800h-700h-5c-55 0 -100 45 -100 100zM6000 6200c110 0 200 -90 200 -200s-90 -200 -200 -200s-200 90 -200 200s90 200 200 200zM6100 3400
c-170 0 -300 -130 -300 -300s130 -300 300 -300s300 130 300 300s-130 300 -300 300zM6900 1800c-60 0 -100 -40 -100 -100s40 -100 100 -100s100 40 100 100s-40 100 -100 100z" />
    <glyph glyph-name="303" unicode="&#xe12f;" horiz-adv-x="11200" 
d="M5600 12800c331 0 600 -269 600 -600c0 -169 -69 -322 -181 -431c1351 -201 2381 -1361 2381 -2769v-410c0 -1560 120 -2970 1600 -3990c740 -510 1200 -1220 1200 -2000v-200h-11200v200c0 780 460 1490 1200 2000c1480 1020 1600 2430 1600 3990v410
c0 1408 1030 2568 2381 2769c-112 109 -181 262 -181 431c0 331 269 600 600 600zM4119 2200h2962c80 -190 119 -390 119 -600c0 -880 -720 -1600 -1600 -1600s-1600 720 -1600 1600c0 210 39 410 119 600z" />
    <glyph glyph-name="304" unicode="&#xe130;" 
d="M0 12800h4000v-4000h-4000v4000zM4400 12800h1200v-400h-400v-400h-400v-400h-400v1200zM4800 11600h800v-400h-400v-400h-400v800zM5600 11600v400h400v400h400v-400h400v-400h-400v-400h400v-400h400v400h800v-800h-400v-800h400v-400h-400v-400h400v-400h800v-400
h-400v-400h-400v400h-400v400h-400v-800h-400v400h-400v800h-400v-400h-400v-400h-400v400h-400v400h-400v400h800v-400h400v400h-400v800h400v400h-400v400h800v-400h400v400h-400v800h-400zM6400 12400v400h400v-400h-400zM6800 11600h400v-400h-400v400zM8000 11200v400
h400v-400h-400zM8000 11600h-400v800h-400v400h1200v-400h-400v-800zM8000 9600v400h400v-400h-400zM8000 9200h400v-400h-400v400zM8800 8000h400v-400h-400v400zM9200 8000v400h400v-400h-400zM7200 7600h400v-800h-400v800zM7200 6800v-400h-400v400h400zM6800 6800h-800
v1200h400v-400h400v-800zM6000 6800v-400h400v-400h400v-800h400v-400h-400v-400h-400v400h-800v400h-1200v400h1200v1200h400zM7200 4800h400v-1200h-400v-400h-400v-400h400v400h400v-800h-400v-800h-800v-400h-400v-400h-400v800h400v400h-400v800h400v-400h400v400h-400
v400h400v800h800v800zM5600 800v-400h-400v400h400zM5600 400h800v-400h-800v400zM6400 400v400h400v-400h-400zM6800 800v400h400v-400h-400zM7200 800h400v-800h-400v800zM5200 400v-400h-800v1200h800v-400h-400v-400h400zM5600 1600h-400v400h400v-400zM5200 2000h-400
v400h-400v400h400v400h400v400h400v-800h-400v-800zM4800 2000v-400h-400v400h400zM5200 3600h-800v400h800v-400zM5200 4000v400h400v-400h-400zM5600 4000h400v-400h-400v400zM6000 4000v400h400v-400h-400zM4400 5200v-800h-400v400h-1200v400h400v400h400v-400h800z
M2800 5200h-400v400h400v-400zM2400 5600h-400v400h-400v400h400v400h400v400h800v400h-800v400h1200v400h400v-800h-400v-400h400v-400h400v1200h800v-400h-400v-1200h400v-400h-800v400h-400v-400h-400v400h-400v-800h-400v400h-400v-400zM1600 6400h-400v-800h-400v400
h-400v400h-400v800h800v-400h400v400h400v400h800v-400h-400v-400h-400v-400zM1200 5600h400v-400h400v-400h-400v-400h-1600v800h400v-400h800v800zM400 5200v400h400v-400h-400zM400 5600h-400v400h400v-400zM800 7200v400h400v-400h-400zM800 7600h-800v800h400v-400h400
v-400zM800 8000v400h800v-800h-400v400h-400zM2400 8000h-400v400h400v-400zM5200 7600h400v-800h-400v800zM5200 10000h-800v400h800v-400zM8800 12800h4000v-4000h-4000v4000zM400 12400v-3200h3200v3200h-3200zM9200 12400v-3200h3200v3200h-3200zM1200 11600h1600v-1600
h-1600v1600zM10000 11600h1600v-1600h-1600v1600zM6800 10400v-400h400v400h-400zM6800 9600v-800h400v800h-400zM9600 7200h800v-800h800v800h800v-1600h-2400v-1600h2400v-800h-2400v-1600h2400v-1600h-800v800h-800v-800h-800v800h-1600v800h800v4000h-800v800h1600v800z
M12000 5600h800v-1600h-800v1600zM12000 3200h800v-1600h-800v1600zM0 4000h4000v-4000h-4000v4000zM400 3600v-3200h3200v3200h-3200zM1200 2800h1600v-1600h-1600v1600z" />
    <glyph glyph-name="305" unicode="&#xe131;" 
d="M2800 12800h800v-1600h800v1600h800v-1638c1138 -192 2000 -1171 2000 -2362c0 -740 -339 -1401 -859 -1841c980 -440 1659 -1419 1659 -2559c0 -1520 -1200 -2750 -2700 -2800h-100v-1600h-800v1600h-800v-1600h-800v1600h-2800v600h800c330 0 600 270 600 600v7200
c0 330 -270 600 -600 600h-800v600h2800v1600zM2800 10600v-3400h1500c940 0 1700 760 1700 1700s-760 1700 -1700 1700h-1500zM8800 8600h4000v-4000h-4000v4000zM9600 7800v-2400h2400v2400h-2400zM2800 6600v-4400h1650c1220 0 2200 980 2200 2200s-980 2200 -2200 2200
h-1650z" />
    <glyph glyph-name="306" unicode="&#xe132;" horiz-adv-x="11600" 
d="M2800 12800h800v-1600h800v1600h800v-1638c1138 -192 2000 -1171 2000 -2362c0 -740 -339 -1401 -859 -1841c980 -440 1659 -1419 1659 -2559c0 -1520 -1200 -2750 -2700 -2800h-100v-1600h-800v1600h-800v-1600h-800v1600h-2800v600h800c330 0 600 270 600 600v7200
c0 330 -270 600 -600 600h-800v600h2800v1600zM2800 10600v-3400h1500c940 0 1700 760 1700 1700s-760 1700 -1700 1700h-1500zM9600 9200v-800h1400v-800h-1400v-800l-1600 1200zM10000 7200l1600 -1200l-1600 -1200v800h-1400v800h1400v800zM2800 6600v-4400h1650
c1220 0 2200 980 2200 2200s-980 2200 -2200 2200h-1650z" />
    <glyph glyph-name="307" unicode="&#xe133;" horiz-adv-x="8000" 
d="M2800 12800h800v-1600h800v1600h800v-1638c1138 -192 2000 -1171 2000 -2362c0 -740 -339 -1401 -859 -1841c980 -440 1659 -1419 1659 -2559c0 -1520 -1200 -2750 -2700 -2800h-100v-1600h-800v1600h-800v-1600h-800v1600h-2800v600h800c330 0 600 270 600 600v7200
c0 330 -270 600 -600 600h-800v600h2800v1600zM2800 10600v-3400h1500c940 0 1700 760 1700 1700s-760 1700 -1700 1700h-1500zM2800 6600v-4400h1650c1220 0 2200 980 2200 2200s-980 2200 -2200 2200h-1650z" />
    <glyph glyph-name="308" unicode="&#xe134;" horiz-adv-x="6400" 
d="M2600 12800l3800 -3800l-2519 -2600l2519 -2600l-3800 -3800v5200l-2000 -2000l-600 600l2600 2600l-2600 2600l600 600l2000 -2000v5200zM3400 10800v-3600l1800 1800zM3400 5600v-3600l1800 1800z" />
    <glyph glyph-name="309" unicode="&#xe135;" horiz-adv-x="10800" 
d="M0 12700h6800c1770 0 3200 -1430 3200 -3200c0 -1110 -571 -2099 -1431 -2669c1310 -540 2231 -1831 2231 -3331c0 -1990 -1610 -3600 -3600 -3600h-7000v600h1000c330 0 600 270 600 600v10400c0 330 -270 600 -600 600h-1200v600zM4000 12100v-5000h1100
c1380 0 2500 1120 2500 2500s-1120 2500 -2500 2500h-1100zM4000 6500v-6000h1600c1660 0 3000 1340 3000 3000s-1340 3000 -3000 3000h-1600z" />
    <glyph glyph-name="310" unicode="&#xe136;" horiz-adv-x="12000" 
d="M500 12700h100v-10969c0 -10 -1 -21 9 -31h-9c-240 0 -450 -99 -600 -269v10669c0 300 220 541 500 591v9zM800 12700h8400v-5200l600 600l600 -600v5200h1300c160 0 290 -121 300 -281v-10719h-11209c10 10 9 21 9 31v10969zM600 1500h11400v-400h-11200
c-220 0 -400 -180 -400 -400s180 -400 400 -400h11200v-400h-11400c-330 0 -600 270 -600 600v400c0 330 270 600 600 600z" />
    <glyph glyph-name="311" unicode="&#xe137;" horiz-adv-x="4400" 
d="M0 12800h4400v-12800l-2200 1419l-2200 -1419v12800z" />
    <glyph glyph-name="312" unicode="&#xe138;" 
d="M0 12400h12800v-800h-12800v800zM200 11400h12400v-10850c0 -80 -70 -150 -150 -150h-12100c-80 0 -150 70 -150 150v10850zM4950 10600c-80 0 -150 -70 -150 -150v-900c0 -80 70 -150 150 -150h2900c80 0 150 70 150 150v900c0 80 -70 150 -150 150h-2900z" />
    <glyph glyph-name="313" unicode="&#xe139;" horiz-adv-x="12200" 
d="M5119 12800h131c420 -30 750 -380 750 -800v-1300c0 -280 -220 -500 -500 -500c-60 0 -100 -40 -100 -100s40 -100 100 -100c280 0 500 -220 500 -500v-2400c0 -390 -310 -700 -700 -700h-600c-60 0 -100 -40 -100 -100s40 -100 100 -100h600c390 0 700 -310 700 -700
v-1800c0 -280 -220 -500 -500 -500c-60 0 -100 -40 -100 -100s40 -100 100 -100c280 0 500 -220 500 -500v-900c0 -870 -690 -1570 -1550 -1600h-131c-430 10 -819 80 -1169 200c250 20 450 230 450 490v1000c0 60 -40 100 -100 100s-100 -40 -100 -100v-1000
c0 -170 -130 -300 -300 -300c-210 0 -410 40 -600 100c-540 320 -990 770 -1350 1310c250 30 450 240 450 500v400c0 170 130 300 300 300s300 -130 300 -300c0 -60 40 -100 100 -100s100 40 100 100c0 280 -220 500 -500 500s-500 -220 -500 -500v-400
c0 -170 -130 -300 -300 -300h-81c-300 510 -530 1101 -700 1731c60 160 211 269 381 269c60 0 100 40 100 100s-40 100 -100 100c-250 0 -459 151 -559 381c-90 590 -141 1199 -141 1819c0 430 39 849 109 1269c130 210 351 331 591 331c60 0 100 40 100 100
s-40 100 -100 100c-200 0 -361 151 -391 341c670 2300 2400 4189 4810 4259zM6950 12800h132c2410 -70 4140 -1960 4800 -4250c-30 -190 -191 -341 -391 -341c-60 0 -100 -40 -100 -100s40 -100 100 -100c240 0 461 -128 591 -328c70 -420 109 -842 109 -1272
c0 -610 -41 -1229 -141 -1819c-100 -230 -309 -381 -559 -381c-60 0 -100 -40 -100 -100s40 -100 100 -100c180 0 328 -109 378 -269c-160 -630 -390 -1221 -700 -1731h-69c-170 0 -300 130 -300 300v400c0 280 -220 500 -500 500s-500 -220 -500 -500
c0 -60 40 -100 100 -100s100 40 100 100c0 170 130 300 300 300s300 -130 300 -300v-400c0 -260 200 -470 450 -500c-360 -550 -800 -999 -1350 -1309c-190 -70 -390 -100 -600 -100c-170 0 -300 130 -300 300v1000c0 60 -40 100 -100 100s-100 -40 -100 -100v-1000
c0 -260 200 -470 450 -500c-360 -120 -748 -190 -1168 -200h-132c-860 30 -1550 730 -1550 1600v900c0 280 220 500 500 500c60 0 100 40 100 100s-40 100 -100 100c-280 0 -500 220 -500 500v1800c0 390 310 700 700 700h600c60 0 100 40 100 100s-40 100 -100 100h-600
c-390 0 -700 310 -700 700v2400c0 280 220 500 500 500c60 0 100 40 100 100s-40 100 -100 100c-280 0 -500 220 -500 500v1300c0 420 330 770 750 800zM4900 12200c-280 0 -500 -220 -500 -500c0 -60 40 -100 100 -100s100 40 100 100c0 170 130 300 300 300
s300 -130 300 -300c0 -60 40 -100 100 -100s100 40 100 100c0 280 -220 500 -500 500zM7300 12200c-280 0 -500 -220 -500 -500c0 -60 40 -100 100 -100s100 40 100 100c0 170 130 300 300 300s300 -130 300 -300c0 -60 40 -100 100 -100s100 40 100 100
c0 280 -220 500 -500 500zM5300 11200c-60 0 -100 -40 -100 -100c0 -170 -130 -300 -300 -300c-390 0 -700 -310 -700 -700s310 -700 700 -700c170 0 300 -130 300 -300c0 -60 40 -100 100 -100s100 40 100 100c0 280 -220 500 -500 500s-500 220 -500 500s220 500 500 500
s500 220 500 500c0 60 -40 100 -100 100zM6900 11200c-60 0 -100 -40 -100 -100c0 -280 220 -500 500 -500s500 -220 500 -500s-220 -500 -500 -500s-500 -220 -500 -500c0 -60 40 -100 100 -100s100 40 100 100c0 170 130 300 300 300c390 0 700 310 700 700
s-310 700 -700 700c-170 0 -300 130 -300 300c0 60 -40 100 -100 100zM2700 10400c-280 0 -500 -220 -500 -500c0 -60 40 -100 100 -100s100 40 100 100c0 170 130 300 300 300s300 -130 300 -300c0 -60 40 -100 100 -100s100 40 100 100c0 280 -220 500 -500 500z
M9500 10400c-280 0 -500 -220 -500 -500c0 -60 40 -100 100 -100s100 40 100 100c0 170 130 300 300 300s300 -130 300 -300c0 -60 40 -100 100 -100s100 40 100 100c0 280 -220 500 -500 500zM1100 8600c-60 0 -100 -40 -100 -100s40 -100 100 -100
c170 0 300 -130 300 -300s-130 -300 -300 -300c-60 0 -100 -40 -100 -100s40 -100 100 -100c280 0 500 220 500 500s-220 500 -500 500zM4900 8600c-60 0 -100 -40 -100 -100s40 -100 100 -100c170 0 300 -130 300 -300c0 -60 40 -100 100 -100s100 40 100 100
c0 280 -220 500 -500 500zM7300 8600c-280 0 -500 -220 -500 -500c0 -60 40 -100 100 -100s100 40 100 100c0 170 130 300 300 300c60 0 100 40 100 100s-40 100 -100 100zM11100 8600c-280 0 -500 -220 -500 -500s220 -500 500 -500c60 0 100 40 100 100s-40 100 -100 100
c-170 0 -300 130 -300 300s130 300 300 300c60 0 100 40 100 100s-40 100 -100 100zM2300 8200c-60 0 -100 -40 -100 -100c0 -610 -490 -1100 -1100 -1100c-60 0 -100 -40 -100 -100s40 -100 100 -100c720 0 1300 580 1300 1300c0 60 -40 100 -100 100zM9900 8200
c-60 0 -100 -40 -100 -100c0 -720 580 -1300 1300 -1300c60 0 100 40 100 100s-40 100 -100 100c-610 0 -1100 490 -1100 1100c0 60 -40 100 -100 100zM5300 7600c-60 0 -100 -40 -100 -100c0 -170 -130 -300 -300 -300h-800c-500 0 -900 -400 -900 -900s400 -900 900 -900
c60 0 100 40 100 100s-40 100 -100 100c-390 0 -700 310 -700 700s310 700 700 700h800c280 0 500 220 500 500c0 60 -40 100 -100 100zM6900 7600c-60 0 -100 -40 -100 -100c0 -280 220 -500 500 -500h800c390 0 700 -310 700 -700s-310 -700 -700 -700
c-60 0 -100 -40 -100 -100s40 -100 100 -100c500 0 900 400 900 900s-400 900 -900 900h-800c-170 0 -300 130 -300 300c0 60 -40 100 -100 100zM1300 5800c-60 0 -100 -40 -100 -100s40 -100 100 -100c170 0 300 -130 300 -300c0 -60 40 -100 100 -100s100 40 100 100
c0 280 -220 500 -500 500zM10900 5800c-280 0 -500 -220 -500 -500c0 -60 40 -100 100 -100s100 40 100 100c0 170 130 300 300 300c60 0 100 40 100 100s-40 100 -100 100zM4900 5600c-60 0 -100 -40 -100 -100s40 -100 100 -100c170 0 300 -130 300 -300
s-130 -300 -300 -300h-300c-60 0 -100 -40 -100 -100s40 -100 100 -100h300c280 0 500 220 500 500s-220 500 -500 500zM7300 5600c-280 0 -500 -220 -500 -500s220 -500 500 -500h300c60 0 100 40 100 100s-40 100 -100 100h-300c-170 0 -300 130 -300 300s130 300 300 300
c60 0 100 40 100 100s-40 100 -100 100zM1100 5400c-280 0 -500 -220 -500 -500s220 -500 500 -500c170 0 300 -130 300 -300s-130 -300 -300 -300c-60 0 -100 -40 -100 -100s40 -100 100 -100c280 0 500 220 500 500s-220 500 -500 500c-170 0 -300 130 -300 300
s130 300 300 300c60 0 100 40 100 100s-40 100 -100 100zM11100 5400c-60 0 -100 -40 -100 -100s40 -100 100 -100c170 0 300 -130 300 -300s-130 -300 -300 -300c-280 0 -500 -220 -500 -500s220 -500 500 -500c60 0 100 40 100 100s-40 100 -100 100
c-170 0 -300 130 -300 300s130 300 300 300c280 0 500 220 500 500s-220 500 -500 500zM3800 4800c-280 0 -500 -220 -500 -500s220 -500 500 -500c60 0 100 40 100 100s-40 100 -100 100c-170 0 -300 130 -300 300s130 300 300 300h300c60 0 100 40 100 100
s-40 100 -100 100h-300zM8100 4800c-60 0 -100 -40 -100 -100s40 -100 100 -100h300c170 0 300 -130 300 -300s-130 -300 -300 -300c-60 0 -100 -40 -100 -100s40 -100 100 -100c280 0 500 220 500 500s-220 500 -500 500h-300zM5300 3800c-390 0 -700 -310 -700 -700v-1000
c0 -170 -130 -300 -300 -300s-300 130 -300 300c0 280 -220 500 -500 500c-60 0 -100 -40 -100 -100s40 -100 100 -100c170 0 300 -130 300 -300c0 -280 220 -500 500 -500s500 220 500 500v1000c0 280 220 500 500 500c60 0 100 40 100 100s-40 100 -100 100zM6900 3800
c-60 0 -100 -40 -100 -100s40 -100 100 -100c280 0 500 -220 500 -500v-1000c0 -280 220 -500 500 -500s500 220 500 500c0 170 130 300 300 300c60 0 100 40 100 100s-40 100 -100 100c-280 0 -500 -220 -500 -500c0 -170 -130 -300 -300 -300s-300 130 -300 300v1000
c0 390 -310 700 -700 700z" />
    <glyph glyph-name="314" unicode="&#xe13a;" 
d="M5100 11800h2400c272 0 500 -228 500 -500v-700h4650c80 0 150 -70 150 -150v-3350c0 -170 -130 -300 -300 -300h-5100v100c0 170 -130 300 -300 300h-1600c-170 0 -300 -130 -300 -300v-100h-4900c-170 0 -300 130 -300 300v3350c0 80 70 150 150 150h4450v700
c0 272 228 500 500 500zM5100 11400c-68 0 -100 -32 -100 -100v-700h2600v700c0 68 -32 100 -100 100h-2400zM5500 7000h1600c50 0 100 -50 100 -100v-400c0 -50 -50 -100 -100 -100h-1600c-50 0 -100 50 -100 100v400c0 50 50 100 100 100zM0 6700
c80 -60 190 -100 300 -100h4900v-100c0 -170 130 -300 300 -300h1600c170 0 300 130 300 300v100h5100c110 0 220 40 300 100v-5550c0 -80 -70 -150 -150 -150h-12500c-80 0 -150 70 -150 150v5550z" />
    <glyph glyph-name="315" unicode="&#xe13b;" horiz-adv-x="8800" 
d="M7000 9600c0 1322 -1062 2000 -2400 2000c-1325 0 -2391 -1066 -2391 -2391c0 -896 495 -1837 781 -3009h1810v-600h-1691c191 -1253 -93 -2732 -1515 -4400h7206v-1200h-8800v1250l175 175c1821 1821 1963 2954 1716 4175h-1291v600h1134c-282 903 -725 1856 -725 3009
c0 1975 1616 3591 3591 3591c1961 0 3600 -1225 3600 -3200h-1200z" />
    <glyph glyph-name="316" unicode="&#xe13c;" 
d="M150 11800h12500c80 0 150 -70 150 -150v-10500c0 -80 -70 -150 -150 -150h-12500c-80 0 -150 70 -150 150v10500c0 80 70 150 150 150zM800 11200l-409 -200l409 -200v400zM1200 11200v-400l400 200zM2200 11200c-110 0 -200 -90 -200 -200s90 -200 200 -200h10009
c110 0 200 90 200 200s-90 200 -200 200h-10009zM400 10400v-9000h12000v9000h-12000z" />
    <glyph glyph-name="317" unicode="&#xe13d;" horiz-adv-x="12600" 
d="M12391 12519c206 17 135 -221 9 -369l-5609 -7110c-100 -130 -310 -301 -450 -371l-1035 -516c-263 441 -685 785 -1209 947l403 1209c50 160 201 372 331 472l7319 5628c81 62 171 104 241 110zM3438 4397c968 24 1536 -881 1312 -1666l-31 -100
c-540 -1770 -2410 -2803 -4210 -2313c-170 50 -339 112 -509 182c1079 672 1879 1729 2209 2990c179 536 682 893 1229 907z" />
    <glyph glyph-name="318" unicode="&#xe13e;" horiz-adv-x="11700" 
d="M3264 12700c0 50 42 100 95 100h5h5h4c1014 0 1534 -969 1816 -1731c197 83 412 131 644 131c220 0 425 -44 612 -119c284 759 799 1719 1810 1719c55 0 100 -45 100 -100s-45 -100 -100 -100c-908 0 -1372 -910 -1628 -1603c864 -476 1256 -1694 794 -2625l1193 400
v1128v2c0 29 20 66 44 82l1200 800c16 11 39 17 62 17c55 0 100 -45 100 -100c0 -31 -22 -69 -49 -85l-1157 -772v-1144c0 -39 -30 -82 -68 -94l-1332 -444c319 -205 600 -486 822 -850l847 282c8 4 17 7 29 7c32 0 71 -23 87 -51l1181 -1969l1166 -387c46 -8 83 -52 83 -99
c0 -55 -45 -100 -100 -100c-13 0 -34 5 -46 11l-1200 400c-19 7 -43 27 -53 44l-1159 1931l-738 -247c303 -577 481 -1336 481 -2303c0 -51 -2 -102 -3 -153l1544 -688c33 -15 59 -55 59 -91c0 -10 -3 -24 -6 -33l-1178 -3338l356 -356c16 -16 30 -49 30 -72
c0 -56 -45 -102 -101 -102c-23 0 -56 14 -72 30l-400 400c-16 16 -29 47 -29 70c0 10 3 26 7 36l1169 3313l-1385 615c-90 -1930 -890 -3542 -1972 -4172c-450 360 -819 1000 -819 1710v5000c0 110 -90 200 -200 200s-200 -90 -200 -200v-5000c0 -710 -368 -1340 -818 -1710
c-1082 630 -1882 2242 -1972 4172l-1385 -615l1169 -3313c4 -10 7 -26 7 -36c0 -23 -13 -54 -29 -70l-400 -400c-16 -16 -49 -30 -72 -30c-56 0 -101 46 -101 102c0 23 13 56 29 72l357 356l-1178 3338c-3 9 -6 23 -6 33c0 36 26 76 59 91l1544 688c-1 51 -4 102 -4 153
c0 967 179 1726 482 2303l-738 247l-1159 -1931c-10 -17 -34 -37 -53 -44l-1200 -400c-12 -6 -33 -11 -46 -11c-55 0 -100 45 -100 100c0 47 37 91 83 99l1166 387l1181 1969c14 25 49 50 80 50c10 0 27 -2 36 -6l847 -282c222 364 503 645 822 850l-1332 444
c-38 12 -69 55 -69 94v1144l-1156 772c-27 16 -49 54 -49 85c0 53 46 101 105 101c17 0 43 -8 57 -18l1200 -800c24 -16 43 -53 43 -82v-2v-1128l1197 -400c-463 908 -59 2115 797 2606c-166 456 -387 890 -703 1206c-253 253 -555 416 -931 416h-10c-55 0 -100 45 -100 100
zM3514 5000c-60 0 -100 -40 -100 -100c0 -1150 279 -2260 769 -3050c20 -30 50 -40 90 -50c73 0 120 96 82 159c-470 760 -741 1831 -741 2941c0 60 -40 100 -100 100zM8114 5000c-60 0 -100 -40 -100 -100c0 -1110 -271 -2181 -741 -2941c-39 -65 2 -159 82 -159
c40 0 70 20 90 50c490 800 769 1910 769 3050c0 60 -40 100 -100 100z" />
    <glyph glyph-name="319" unicode="&#xe13f;" 
d="M12000 12500h650c80 0 150 -70 150 -150v-8900c0 -80 -70 -150 -150 -150h-650v9200zM11631 12450c27 10 145 17 169 41v-9181c-61 9 -123 23 -169 40l-6856 2419c-214 54 -422 -41 -562 -181l518 -957c40 -70 -1 -131 -81 -131h-331l1640 -4109c20 -50 -9 -91 -59 -91
h-1400c-60 0 -121 41 -141 91l-2200 5509h-1609c-80 0 -150 70 -150 150v250h-250c-80 0 -150 70 -150 150v2900c0 80 70 150 150 150h250v250c0 80 70 150 150 150h3700c80 0 211 20 291 50z" />
    <glyph glyph-name="320" unicode="&#xe140;" horiz-adv-x="10000" 
d="M300 12800h9400c170 0 300 -130 300 -300v-12200c0 -170 -130 -300 -300 -300h-9400c-170 0 -300 130 -300 300v12200c0 170 130 300 300 300zM1250 11600c-30 0 -50 -20 -50 -50v-2300c0 -30 20 -50 50 -50h7500c30 0 50 20 50 50v2300c0 30 -20 50 -50 50h-7500z
M1250 8400c-30 0 -50 -20 -50 -50v-100c0 -30 20 -50 50 -50h7500c30 0 50 20 50 50v100c0 30 -20 50 -50 50h-7500zM1250 7600c-30 0 -50 -20 -50 -50v-300c0 -30 20 -50 50 -50h1500c30 0 50 20 50 50v300c0 30 -20 50 -50 50h-1500zM3250 7600c-30 0 -50 -20 -50 -50
v-300c0 -30 20 -50 50 -50h1500c30 0 50 20 50 50v300c0 30 -20 50 -50 50h-1500zM5250 7600c-30 0 -50 -20 -50 -50v-300c0 -30 20 -50 50 -50h1500c30 0 50 20 50 50v300c0 30 -20 50 -50 50h-1500zM7250 7600c-30 0 -50 -20 -50 -50v-300c0 -30 20 -50 50 -50h1500
c30 0 50 20 50 50v300c0 30 -20 50 -50 50h-1500zM1250 6800c-30 0 -50 -20 -50 -50v-1500c0 -30 20 -50 50 -50h1500c30 0 50 20 50 50v1500c0 30 -20 50 -50 50h-1500zM3250 6800c-30 0 -50 -20 -50 -50v-1500c0 -30 20 -50 50 -50h1500c30 0 50 20 50 50v1500
c0 30 -20 50 -50 50h-1500zM5250 6800c-30 0 -50 -20 -50 -50v-1500c0 -30 20 -50 50 -50h1500c30 0 50 20 50 50v1500c0 30 -20 50 -50 50h-1500zM7250 6800c-30 0 -50 -20 -50 -50v-1500c0 -30 20 -50 50 -50h1500c30 0 50 20 50 50v1500c0 30 -20 50 -50 50h-1500z
M1250 4800c-30 0 -50 -20 -50 -50v-1500c0 -30 20 -50 50 -50h1500c30 0 50 20 50 50v1500c0 30 -20 50 -50 50h-1500zM3250 4800c-30 0 -50 -20 -50 -50v-1500c0 -30 20 -50 50 -50h1500c30 0 50 20 50 50v1500c0 30 -20 50 -50 50h-1500zM5250 4800c-30 0 -50 -20 -50 -50
v-1500c0 -30 20 -50 50 -50h1500c30 0 50 20 50 50v1500c0 30 -20 50 -50 50h-1500zM7250 4800c-30 0 -50 -20 -50 -50v-3500c0 -30 20 -50 50 -50h1500c30 0 50 20 50 50v3500c0 30 -20 50 -50 50h-1500zM1250 2800c-30 0 -50 -20 -50 -50v-1500c0 -30 20 -50 50 -50h1500
c30 0 50 20 50 50v1500c0 30 -20 50 -50 50h-1500zM3250 2800c-30 0 -50 -20 -50 -50v-1500c0 -30 20 -50 50 -50h1500c30 0 50 20 50 50v1500c0 30 -20 50 -50 50h-1500zM5250 2800c-30 0 -50 -20 -50 -50v-1500c0 -30 20 -50 50 -50h1500c30 0 50 20 50 50v1500
c0 30 -20 50 -50 50h-1500z" />
    <glyph glyph-name="321" unicode="&#xe141;" horiz-adv-x="12600" 
d="M150 12400h12300c80 0 150 -70 150 -150v-2250h-12600v2250c0 80 70 150 150 150zM0 9800h12600v-9100c0 -170 -130 -300 -300 -300h-12000c-170 0 -300 130 -300 300v9100zM4000 9000v-1400h1400v1400h-1400zM5600 9000v-1400h1400v1400h-1400zM7200 9000v-1400h1400
v1400h-1400zM8800 9000v-1400h1400v1400h-1400zM10400 9000v-1400h1400v1400h-1400zM800 7400v-1400h1400v1400h-1400zM2400 7400v-1400h1400v1400h-1400zM4000 7400v-1400h1400v1400h-1400zM5600 7400v-1400h1400v1400h-1400zM7200 7400v-1400h1400v1400h-1400zM8800 7400
v-1400h1400v1400h-1400zM10400 7400v-1400h1400v1400h-1400zM800 5800v-1400h1400v1400h-1400zM2400 5800v-1400h1400v1400h-1400zM4000 5800v-1400h1400v1400h-1400zM5600 5800v-1400h1400v1400h-1400zM7200 5800v-1400h1400v1400h-1400zM8800 5800v-1400h1400v1400h-1400z
M10400 5800v-1400h1400v1400h-1400zM800 4200v-1400h1400v1400h-1400zM2400 4200v-1400h1400v1400h-1400zM4000 4200v-1400h1400v1400h-1400zM5600 4200v-1400h1400v1400h-1400zM7200 4200v-1400h1400v1400h-1400zM8800 4200v-1400h1400v1400h-1400zM10400 4200v-1400h1400
v1400h-1400zM800 2600v-1400h1400v1400h-1400zM2400 2600v-1400h1400v1400h-1400zM4000 2600v-1400h1400v1400h-1400zM5600 2600v-1400h1400v1400h-1400z" />
    <glyph glyph-name="322" unicode="&#xe142;" 
d="M1800 10400h800v-200h200v-400h200v400h1600v-400h200v250c0 80 70 150 150 150h7700c80 0 150 -70 150 -150v-2050h-4600c-310 130 -650 200 -1000 200s-690 -70 -1000 -200h-6200v1650c0 80 70 150 150 150h1450v400h200v200zM9619 9800c-10 0 -19 -9 -19 -19v-1362
c0 -10 9 -19 19 -19h1962c10 0 19 9 19 19h-9v1362c0 10 -12 19 -22 19h-1950zM7619 9600c-10 0 -19 -9 -19 -19v-962c0 -10 9 -19 19 -19h1362c10 0 19 9 19 19v962c0 10 -11 19 -31 19h-1350zM3431 9191c-10 0 -22 -12 -22 -22v-350c0 -10 12 -19 22 -19h750
c10 0 19 9 19 19v350c0 10 -9 22 -19 22h-750zM7200 8000c1330 0 2400 -1070 2400 -2400s-1070 -2400 -2400 -2400s-2400 1070 -2400 2400s1070 2400 2400 2400zM0 7800h5809c-620 -390 -1058 -1041 -1178 -1791c-110 120 -261 191 -431 191c-330 0 -600 -270 -600 -600
s270 -600 600 -600c170 0 321 71 431 191c200 -1240 1279 -2191 2569 -2191c1440 0 2600 1160 2600 2600c0 930 -489 1740 -1219 2200h4219v-5000h-12800v5000zM7200 7800c-1210 0 -2200 -990 -2200 -2200s990 -2200 2200 -2200s2200 990 2200 2200s-990 2200 -2200 2200z
M7200 7600c1100 0 2000 -900 2000 -2000s-900 -2000 -2000 -2000s-2000 900 -2000 2000s900 2000 2000 2000zM7200 7400c-990 0 -1800 -810 -1800 -1800c0 -60 40 -100 100 -100s100 40 100 100c0 880 720 1600 1600 1600c60 0 100 40 100 100s-40 100 -100 100zM4200 6000
c220 0 400 -180 400 -400s-180 -400 -400 -400s-400 180 -400 400s180 400 400 400zM16 2600h12768c-40 -118 -149 -200 -284 -200h-12200c-135 0 -244 82 -284 200z" />
    <glyph glyph-name="323" unicode="&#xe143;" 
d="M7200 12300h1400v-200h500c170 0 381 -101 491 -231l1218 -1538c110 -130 321 -231 491 -231h1200c170 0 300 -130 300 -300v-8500h-12800v6400c0 1330 1070 2400 2400 2400h1900c170 0 381 101 491 231l1218 1538c110 130 321 231 491 231h700v200zM2000 8900
c-220 0 -400 -180 -400 -400s180 -400 400 -400s400 180 400 400s-180 400 -400 400zM3900 8700c-60 0 -100 -40 -100 -100v-300c0 -140 -91 -341 -181 -441l-178 -178c-100 -100 -301 -181 -441 -181h-2400c-60 0 -100 -40 -100 -100s40 -100 100 -100h2400
c80 0 160 20 250 50c-30 -90 -50 -170 -50 -250v-900c0 -60 40 -100 100 -100s100 40 100 100v900c0 140 91 341 181 441l178 178c140 140 241 391 241 581v300c0 60 -40 100 -100 100zM7800 8300c-1650 0 -3000 -1350 -3000 -3000s1350 -3000 3000 -3000
c1510 0 2769 1121 2969 2581c110 -110 261 -181 431 -181c330 0 600 270 600 600s-270 600 -600 600c-170 0 -321 -71 -431 -181c-200 1460 -1459 2581 -2969 2581zM7800 7900c1440 0 2600 -1160 2600 -2600s-1160 -2600 -2600 -2600s-2600 1160 -2600 2600
s1160 2600 2600 2600zM7800 7659c-1300 0 -2359 -1059 -2359 -2359s1059 -2359 2359 -2359s2359 1059 2359 2359s-1059 2359 -2359 2359zM7800 7500c1210 0 2200 -990 2200 -2200s-990 -2200 -2200 -2200s-2200 990 -2200 2200s990 2200 2200 2200zM7800 7200
c-1050 0 -1900 -850 -1900 -1900c0 -60 40 -100 100 -100s100 40 100 100c0 940 760 1700 1700 1700c60 0 100 40 100 100s-40 100 -100 100zM11200 5700c221 0 400 -179 400 -400s-179 -400 -400 -400s-400 179 -400 400s179 400 400 400zM0 1100h12800v-300
c0 -170 -130 -300 -300 -300h-12200c-170 0 -300 130 -300 300v300z" />
    <glyph glyph-name="324" unicode="&#xe144;" horiz-adv-x="12700" 
d="M84 10300h12500c80 0 109 -49 59 -119l-6218 -7762c-50 -70 -131 -70 -191 -10l-6209 7772c-50 70 -21 119 59 119z" />
    <glyph glyph-name="325" unicode="&#xe145;" horiz-adv-x="8000" 
d="M7816 12609c55 39 119 38 119 -59v-12500c0 -80 -49 -109 -119 -59l-7762 6218c-70 50 -70 131 -10 191z" />
    <glyph glyph-name="326" unicode="&#xe146;" horiz-adv-x="8000" 
d="M0 12550c0 91 58 102 119 59l7762 -6218c70 -50 70 -131 10 -191l-7772 -6209c-70 -50 -119 -21 -119 59v12500z" />
    <glyph glyph-name="327" unicode="&#xe147;" horiz-adv-x="12700" 
d="M6243 10281c49 69 131 70 191 10l6209 -7772c50 -70 21 -119 -59 -119h-12500c-80 0 -109 49 -59 119z" />
    <glyph glyph-name="328" unicode="&#xe148;" 
d="M3591 4909c0 -54 -25 -102 -41 -168h-3l-681 -1644c-175 -5 -340 -48 -485 -125l803 1934l4 6c-4 -2 -2 6 0 7v3l-1838 6378h-769c-42 -116 -151 -200 -281 -200c-166 0 -300 134 -300 300s134 300 300 300h1119c128 0 254 -82 291 -216h3v-6l281 -978h10506
c170 0 271 -131 241 -291l-1072 -5009c-30 -160 -199 -291 -359 -291h-7719zM2900 2900c497 0 900 -403 900 -900s-403 -900 -900 -900s-900 403 -900 900s403 900 900 900zM10300 2900c497 0 900 -403 900 -900s-403 -900 -900 -900s-900 403 -900 900s403 900 900 900z
M3750 2700h5700c-95 -116 -164 -251 -206 -400h-5288c-42 149 -111 284 -206 400z" />
    <glyph glyph-name="329" unicode="&#xe149;" 
d="M150 10800h7700c80 0 150 -69 150 -159v-1441h-3400v-4209h-3250c-90 0 -200 -50 -250 -110l-1000 -1172c-60 -60 -100 -39 -100 41v6900c0 80 70 150 150 150zM4950 9009h7700c80 0 150 -70 150 -150v-6900c0 -90 -50 -100 -100 -40l-1000 1172
c-60 60 -170 109 -250 109h-6500c-80 0 -150 70 -150 150v5500c0 80 70 149 150 159z" />
    <glyph glyph-name="330" unicode="&#xe14a;" horiz-adv-x="12400" 
d="M11147 11281l1166 -1097c-2536 -2688 -5066 -5382 -7600 -8072l-560 -593c-1195 1169 -2387 2339 -3581 3509l-572 559l1119 1144l2991 -2928c2345 2493 4694 4982 7037 7478z" />
    <glyph glyph-name="331" unicode="&#xe14b;" 
d="M0 10731l6400 -6400l6400 6400v-2262l-6400 -6400l-6400 6400v2262z" />
    <glyph glyph-name="332" unicode="&#xe14c;" horiz-adv-x="8700" 
d="M6400 12800h2262l-6400 -6400l6400 -6400h-2262l-6400 6400z" />
    <glyph glyph-name="333" unicode="&#xe14d;" horiz-adv-x="8700" 
d="M0 12800h2262l6400 -6400l-6400 -6400h-2262l6400 6400z" />
    <glyph glyph-name="334" unicode="&#xe14e;" 
d="M6400 10731l6400 -6400v-2262l-6400 6400l-6400 -6400v2262z" />
    <glyph glyph-name="335" unicode="&#xe14f;" 
d="M6400 12800c3535 0 6400 -2865 6400 -6400s-2865 -6400 -6400 -6400s-6400 2865 -6400 6400s2865 6400 6400 6400zM9369 9169l-3978 -4419l-1791 1791l-569 -572l2388 -2388l4540 5050z" />
    <glyph glyph-name="336" unicode="&#xe150;" 
d="M6400 12800c3535 0 6400 -2865 6400 -6400s-2865 -6400 -6400 -6400s-6400 2865 -6400 6400s2865 6400 6400 6400zM4300 9069l-569 -569l2100 -2100l-2100 -2100l569 -569l2100 2100l2100 -2100l569 569l-2100 2100l2100 2100l-569 569l-2100 -2100z" />
    <glyph glyph-name="337" unicode="&#xe151;" horiz-adv-x="8800" 
d="M4400 12600c660 0 1200 -540 1200 -1200v-400h800c660 0 1200 -540 1200 -1200v-200h-6400v200c0 660 540 1200 1200 1200h800v400c0 660 540 1200 1200 1200zM4400 12200c-220 0 -400 -180 -400 -400s180 -400 400 -400s400 180 400 400s-180 400 -400 400zM150 10600
h1100c-160 -230 -250 -500 -250 -800v-400h6800v400c0 300 -90 570 -250 800h1100c80 0 150 -70 150 -150v-10200c0 -80 -70 -150 -150 -150h-8500c-80 0 -150 70 -150 150v10200c0 80 70 150 150 150z" />
    <glyph glyph-name="338" unicode="&#xe152;" 
d="M6400 12800c3530 0 6400 -2870 6400 -6400s-2870 -6400 -6400 -6400s-6400 2870 -6400 6400s2870 6400 6400 6400zM6400 12000c-3098 0 -5600 -2502 -5600 -5600s2502 -5600 5600 -5600s5600 2502 5600 5600s-2502 5600 -5600 5600zM6400 11600c110 0 200 -90 200 -200
s-90 -200 -200 -200s-200 90 -200 200s90 200 200 200zM3900 10931c110 0 200 -90 200 -200s-90 -200 -200 -200s-200 90 -200 200s90 200 200 200zM8900 10931c110 0 200 -90 200 -200s-90 -200 -200 -200s-200 90 -200 200s90 200 200 200zM6200 6331v4069h400v-3928
c824 -466 1650 -930 2472 -1397l-197 -347c-851 481 -1707 956 -2553 1444l-2750 -2941c-17 -21 -52 -39 -79 -39c-55 0 -100 45 -100 100c0 25 16 60 35 77zM2069 9100c110 0 200 -90 200 -200s-90 -200 -200 -200s-200 90 -200 200s90 200 200 200zM10731 9100
c110 0 200 -90 200 -200s-90 -200 -200 -200s-200 90 -200 200s90 200 200 200zM1400 6600c110 0 200 -90 200 -200s-90 -200 -200 -200s-200 90 -200 200s90 200 200 200zM11400 6600c110 0 200 -90 200 -200s-90 -200 -200 -200s-200 90 -200 200s90 200 200 200z
M2069 4100c110 0 200 -90 200 -200s-90 -200 -200 -200s-200 90 -200 200s90 200 200 200zM10731 4100c110 0 200 -90 200 -200s-90 -200 -200 -200s-200 90 -200 200s90 200 200 200zM3900 2268c110 0 200 -90 200 -200s-90 -200 -200 -200s-200 90 -200 200
s90 200 200 200zM8900 2268c110 0 200 -90 200 -200s-90 -200 -200 -200s-200 90 -200 200s90 200 200 200zM6400 1600c110 0 200 -90 200 -200s-90 -200 -200 -200s-200 90 -200 200s90 200 200 200z" />
    <glyph glyph-name="339" unicode="&#xe153;" 
d="M5600 12700c1920 0 3501 -1509 3591 -3409c840 -90 1510 -760 1600 -1600l209 9c990 0 1800 -810 1800 -1800s-810 -1800 -1800 -1800h-4400v709c240 220 400 541 400 891c0 660 -540 1200 -1200 1200s-1200 -540 -1200 -1200c0 -350 160 -671 400 -891v-709h-2400
c-1440 60 -2600 1240 -2600 2700c0 1250 859 2309 2009 2609c160 1840 1711 3291 3591 3291zM5800 6500c442 0 800 -358 800 -800c0 -296 -161 -553 -400 -691v-2650h850c70 0 109 -58 69 -128l-1238 -2200c-40 -70 -110 -70 -150 0l-1240 2200c-40 70 -12 128 78 128h831
v2650c-239 138 -400 395 -400 691c0 442 358 800 800 800z" />
    <glyph glyph-name="340" unicode="&#xe154;" 
d="M5600 12800c1920 0 3501 -1509 3591 -3409c840 -90 1510 -760 1600 -1600l209 9c990 0 1800 -810 1800 -1800s-810 -1800 -1800 -1800h-3669l-1531 2600l-1531 -2600h-1669c-1440 60 -2600 1240 -2600 2700c0 1250 859 2309 2009 2609c160 1840 1711 3291 3591 3291z
M5800 6000l1400 -2400h-1000v-2109c239 -138 400 -395 400 -691c0 -442 -358 -800 -800 -800s-800 358 -800 800c0 296 161 553 400 691v2109h-1000z" />
    <glyph glyph-name="341" unicode="&#xe155;" 
d="M5600 10700c1920 0 3500 -1500 3600 -3400c840 -90 1510 -760 1600 -1600c1300 0 2000 -810 2000 -1800s-810 -1800 -1800 -1800h-8400c-1440 50 -2600 1240 -2600 2700c0 1250 840 2300 2000 2600c160 1840 1720 3300 3600 3300z" />
    <glyph glyph-name="342" unicode="&#xe156;" 
d="M0 7881v19c0 143 9 280 22 412c202 1986 1780 3564 3766 3766c136 13 272 22 412 22h19c224 -1 446 -19 647 -50c1769 -281 3171 -1670 3475 -3432c-717 674 -1685 1082 -2741 1082c-1980 0 -3669 -1480 -3969 -3400c-374 -128 -712 -333 -1009 -597
c-382 622 -618 1273 -622 2178zM5600 9300c1920 0 3500 -1500 3600 -3400c840 -90 1510 -760 1600 -1600c70 10 130 0 200 0c990 0 1800 -810 1800 -1800s-810 -1800 -1800 -1800h-8400c-1440 50 -2600 1240 -2600 2700c0 1250 840 2300 2000 2600
c160 1840 1720 3300 3600 3300z" />
    <glyph glyph-name="343" unicode="&#xe157;" 
d="M7431 10300h847l-2809 -7800h-847zM3800 9175v-950l-2684 -1737l2684 -1897v-979c-1215 849 -2420 1708 -3631 2560l-169 122v425c1196 770 2387 1544 3581 2315zM9000 9175c1207 -779 2413 -1561 3619 -2341l181 -115v-425c-1186 -844 -2380 -1681 -3569 -2522
l-231 -160v979l2684 1897l-2684 1737v950z" />
    <glyph glyph-name="344" unicode="&#xe158;" 
d="M5400 12800h1991l350 -1419c420 -120 830 -290 1200 -500l1269 760l1409 -1410l-750 -1272c220 -370 380 -780 500 -1200l1431 -359v-1991l-1418 -359c-120 -420 -290 -830 -500 -1200l759 -1269l-1409 -1412l-1272 750c-370 -220 -780 -380 -1200 -500l-360 -1429h-1969
l-371 1429c-420 120 -830 290 -1200 500l-1269 -760l-1410 1410l750 1271c-220 370 -380 780 -500 1200l-1431 360v1990l1431 360c120 420 290 830 500 1200l-762 1269l1400 1400l1272 -750c370 220 780 380 1200 500zM6400 9800c-1880 0 -3400 -1520 -3400 -3400
s1520 -3400 3400 -3400s3400 1520 3400 3400s-1520 3400 -3400 3400z" />
    <glyph glyph-name="345" unicode="&#xe159;" 
d="M3250 12800l600 -809c300 40 601 40 891 0l600 809l1250 -519l-141 -1000c230 -180 451 -391 631 -631l1000 150l519 -1250l-809 -600c40 -300 40 -601 0 -891l809 -600l-519 -1250l-1000 141c-180 -230 -391 -451 -631 -631l150 -1000l-1250 -519l-600 809
c-300 -40 -600 -40 -890 0l-600 -809l-1250 519l140 1000c-230 180 -451 391 -631 631l-1000 -150l-519 1250l809 600c-40 300 -40 600 0 890l-809 600l519 1260l1000 -150c180 230 391 451 631 631l-150 1000zM6441 9391c-466 1132 -1760 1787 -3031 1259
c-1180 -500 -1750 -1851 -1260 -3041c500 -1180 1851 -1749 3041 -1259c1180 500 1750 1851 1250 3041zM9100 6409h1000l181 -719c210 -60 410 -140 600 -250l628 379l700 -700l-378 -638c110 -190 190 -390 250 -600l719 -181v-991l-719 -200c-60 -210 -140 -410 -250 -600
l378 -628l-700 -700l-640 378c-190 -110 -390 -190 -600 -250l-178 -719h-991l-181 719c-210 60 -410 140 -600 250l-628 -378l-700 700l378 638c-110 190 -190 390 -250 600l-719 181v990l709 200c60 210 140 410 250 600l-378 629l700 700l638 -379
c190 110 390 190 600 250zM9600 4900c-940 0 -1700 -760 -1700 -1700s760 -1700 1700 -1700s1700 760 1700 1700s-760 1700 -1700 1700z" />
    <glyph glyph-name="346" unicode="&#xe15a;" 
d="M0 12800h12800v-1600h-12800v1600zM6000 10400h800v-6800h1000l-1400 -2400l-1400 2400h1000v6800zM0 400h12800v-400h-12800v400z" />
    <glyph glyph-name="347" unicode="&#xe15b;" 
d="M0 12800h400v-12800h-400v12800zM11200 12800h1600v-12800h-1600v12800zM3600 7800v-1000h6800v-800h-6800v-1000l-2400 1400z" />
    <glyph glyph-name="348" unicode="&#xe15c;" 
d="M0 12800h1600v-12800h-1600v12800zM12400 12800h400v-12800h-400v12800zM9200 7800l2400 -1400l-2400 -1400v1000h-6800v800h6800v1000z" />
    <glyph glyph-name="349" unicode="&#xe15d;" 
d="M0 12800h12800v-400h-12800v400zM6400 11600l1400 -2400h-1000v-6800h-800v6800h-1000zM0 1600h12800v-1600h-12800v1600z" />
    <glyph glyph-name="350" unicode="&#xe15e;" horiz-adv-x="12900" 
d="M150 11800h12509c80 0 150 -70 150 -150v-10709c0 -80 -49 -101 -109 -41l-1991 1991c-60 60 -179 109 -259 109h-10300c-80 0 -150 70 -150 150v8500c0 80 70 150 150 150z" />
    <glyph glyph-name="351" unicode="&#xe15f;" 
d="M6400 12800c3530 0 6400 -2870 6400 -6400s-2870 -6400 -6400 -6400s-6400 2870 -6400 6400s2870 6400 6400 6400zM6400 12000c-3098 0 -5600 -2502 -5600 -5600s2502 -5600 5600 -5600s5600 2502 5600 5600s-2502 5600 -5600 5600zM6400 11600c110 0 200 -90 200 -200
s-90 -200 -200 -200s-200 90 -200 200s90 200 200 200zM9400 9400l-2000 -4000l-4000 -2000l2000 4000zM6400 7200c-440 0 -800 -360 -800 -800s360 -800 800 -800s800 360 800 800s-360 800 -800 800zM6400 6800c221 0 400 -179 400 -400s-179 -400 -400 -400
s-400 179 -400 400s179 400 400 400zM1400 6600c110 0 200 -90 200 -200s-90 -200 -200 -200s-200 90 -200 200s90 200 200 200zM11400 6600c110 0 200 -90 200 -200s-90 -200 -200 -200s-200 90 -200 200s90 200 200 200zM6400 1600c110 0 200 -90 200 -200
s-90 -200 -200 -200s-200 90 -200 200s90 200 200 200z" />
    <glyph glyph-name="352" unicode="&#xe160;" 
d="M6400 1200c-2870 0 -5200 2330 -5200 5200s2330 5200 5200 5200v-10400zM6400 12800c3530 0 6400 -2870 6400 -6400s-2870 -6400 -6400 -6400s-6400 2870 -6400 6400s2870 6400 6400 6400zM6400 12000c-3098 0 -5600 -2502 -5600 -5600s2502 -5600 5600 -5600
s5600 2502 5600 5600s-2502 5600 -5600 5600zM6400 11600c-2870 0 -5200 -2330 -5200 -5200s2330 -5200 5200 -5200v10400z" />
    </font>
</defs>
</svg>
